M48
; DRILL file {KiCad 7.0.9} date Tue Jan 23 23:45:34 2024
; FORMAT={-:-/ absolute / inch / decimal}
; #@! TF.CreationDate,2024-01-23T23:45:34-05:00
; #@! TF.GenerationSoftware,Kicad,Pcbnew,7.0.9
; #@! TF.FileFunction,Plated,1,2,PTH
FMAT,2
INCH
; #@! TA.AperFunction,Plated,PTH,ViaDrill
T1C0.0157
; #@! TA.AperFunction,Plated,PTH,ComponentDrill
T2C0.0236
; #@! TA.AperFunction,Plated,PTH,ComponentDrill
T3C0.0276
; #@! TA.AperFunction,Plated,PTH,ComponentDrill
T4C0.0300
; #@! TA.AperFunction,Plated,PTH,ComponentDrill
T5C0.0394
%
G90
G05
T1
X4.1142Y-2.5787
X4.1535Y-3.3465
X4.1535Y-3.4843
X4.1732Y-3.0512
X4.1732Y-3.2087
X4.1732Y-3.622
X4.2126Y-2.874
X4.252Y-2.7165
X4.4685Y-2.6378
X4.5472Y-2.2638
X4.626Y-4.4291
X4.7244Y-2.6378
X4.7244Y-4.3504
X4.7441Y-2.8543
X4.8425Y-2.3228
X4.9606Y-2.6181
X5.0787Y-4.3701
X5.2165Y-2.5394
X5.3346Y-2.5591
X5.3346Y-2.6575
X5.4134Y-4.3898
X5.4823Y-4.3799
X5.6299Y-2.1457
X5.8268Y-2.5
X5.8858Y-2.7756
X5.9055Y-4.1929
X5.9055Y-4.252
X5.9252Y-2.3228
X5.9252Y-4.3701
X5.9646Y-4.1929
X5.9646Y-4.252
X5.9843Y-4.3701
X6.0236Y-4.1339
X6.0236Y-4.1929
X6.0236Y-4.252
X6.0433Y-4.3701
X6.063Y-4.0748
X6.0827Y-4.252
X6.1024Y-4.3701
X6.122Y-2.9528
X6.1417Y-4.252
X6.2402Y-2.7953
X6.3189Y-2.2244
X6.3189Y-3.2677
X6.3976Y-2.9134
X6.3976Y-3.8189
X6.4764Y-2.8543
X6.4961Y-3.1693
X6.5551Y-2.5591
X6.6339Y-2.6378
X6.6535Y-3.4843
X6.6535Y-4.1142
X6.7323Y-3.3465
X6.8701Y-2.7953
X6.8898Y-3.1496
T2
X4.5157Y-3.64
X4.5157Y-3.699
X4.5157Y-3.8565
X4.5157Y-3.9156
X4.5157Y-4.073
X4.5157Y-4.1321
T3
X5.9488Y-2.874
X5.9646Y-3.248
X5.9648Y-3.0512
X6.0236Y-2.874
X6.0394Y-3.248
X6.0396Y-3.0512
T4
X4.6732Y-3.0179
X4.6732Y-3.1439
X4.6732Y-3.2699
X4.6732Y-3.3959
X4.6732Y-3.5219
X4.6732Y-3.7187
X4.6732Y-3.9156
X4.6732Y-4.1124
X4.7913Y-2.9392
X4.7913Y-3.0809
X4.7913Y-3.2069
X4.7913Y-3.3329
X4.7913Y-3.4589
X4.7913Y-3.6557
X4.7913Y-3.8526
X4.7913Y-4.0337
X5.7992Y-2.8719
X5.7992Y-3.0581
X5.7992Y-3.2443
X5.7992Y-3.4305
X5.7992Y-3.6167
X5.7992Y-3.803
X5.7992Y-3.9892
X5.7992Y-4.1754
T5
X3.5827Y-2.5756
X3.5827Y-2.6756
X3.5827Y-2.7756
X3.5827Y-3.0071
X3.5827Y-3.1071
X3.5827Y-3.2071
X3.5827Y-3.3071
X3.5827Y-3.4071
X3.5827Y-3.5071
X4.9756Y-2.2441
X5.0756Y-2.2441
X5.1756Y-2.2441
X5.2756Y-2.2441
X5.3756Y-2.2441
X6.0039Y-3.5215
X6.0039Y-3.6215
X6.0039Y-3.7215
X6.1567Y-4.0354
X6.2567Y-4.0354
X6.3567Y-4.0354
X6.4567Y-4.0354
X6.6907Y-3.6614
X6.7898Y-3.9567
X6.7907Y-3.6614
X6.8898Y-3.9567
X6.8907Y-3.6614
X6.9898Y-3.9567
T0
M30
