%TF.GenerationSoftware,KiCad,Pcbnew,7.0.9*%
%TF.CreationDate,2024-01-23T23:33:06-05:00*%
%TF.ProjectId,Drive,44726976-652e-46b6-9963-61645f706362,rev?*%
%TF.SameCoordinates,Original*%
%TF.FileFunction,Copper,L1,Top*%
%TF.FilePolarity,Positive*%
%FSLAX46Y46*%
G04 Gerber Fmt 4.6, Leading zero omitted, Abs format (unit mm)*
G04 Created by KiCad (PCBNEW 7.0.9) date 2024-01-23 23:33:06*
%MOMM*%
%LPD*%
G01*
G04 APERTURE LIST*
G04 Aperture macros list*
%AMRoundRect*
0 Rectangle with rounded corners*
0 $1 Rounding radius*
0 $2 $3 $4 $5 $6 $7 $8 $9 X,Y pos of 4 corners*
0 Add a 4 corners polygon primitive as box body*
4,1,4,$2,$3,$4,$5,$6,$7,$8,$9,$2,$3,0*
0 Add four circle primitives for the rounded corners*
1,1,$1+$1,$2,$3*
1,1,$1+$1,$4,$5*
1,1,$1+$1,$6,$7*
1,1,$1+$1,$8,$9*
0 Add four rect primitives between the rounded corners*
20,1,$1+$1,$2,$3,$4,$5,0*
20,1,$1+$1,$4,$5,$6,$7,0*
20,1,$1+$1,$6,$7,$8,$9,0*
20,1,$1+$1,$8,$9,$2,$3,0*%
G04 Aperture macros list end*
%TA.AperFunction,SMDPad,CuDef*%
%ADD10RoundRect,0.250000X-0.312500X-0.625000X0.312500X-0.625000X0.312500X0.625000X-0.312500X0.625000X0*%
%TD*%
%TA.AperFunction,ComponentPad*%
%ADD11R,1.700000X1.700000*%
%TD*%
%TA.AperFunction,ComponentPad*%
%ADD12O,1.700000X1.700000*%
%TD*%
%TA.AperFunction,SMDPad,CuDef*%
%ADD13RoundRect,0.112500X0.112500X-0.187500X0.112500X0.187500X-0.112500X0.187500X-0.112500X-0.187500X0*%
%TD*%
%TA.AperFunction,SMDPad,CuDef*%
%ADD14RoundRect,0.250000X-0.625000X0.312500X-0.625000X-0.312500X0.625000X-0.312500X0.625000X0.312500X0*%
%TD*%
%TA.AperFunction,ComponentPad*%
%ADD15C,1.200000*%
%TD*%
%TA.AperFunction,SMDPad,CuDef*%
%ADD16RoundRect,0.250000X-0.325000X-0.650000X0.325000X-0.650000X0.325000X0.650000X-0.325000X0.650000X0*%
%TD*%
%TA.AperFunction,SMDPad,CuDef*%
%ADD17RoundRect,0.112500X0.187500X0.112500X-0.187500X0.112500X-0.187500X-0.112500X0.187500X-0.112500X0*%
%TD*%
%TA.AperFunction,SMDPad,CuDef*%
%ADD18RoundRect,0.250000X0.312500X0.625000X-0.312500X0.625000X-0.312500X-0.625000X0.312500X-0.625000X0*%
%TD*%
%TA.AperFunction,ComponentPad*%
%ADD19C,1.400000*%
%TD*%
%TA.AperFunction,ComponentPad*%
%ADD20O,1.400000X1.400000*%
%TD*%
%TA.AperFunction,SMDPad,CuDef*%
%ADD21RoundRect,0.250000X0.650000X-0.325000X0.650000X0.325000X-0.650000X0.325000X-0.650000X-0.325000X0*%
%TD*%
%TA.AperFunction,SMDPad,CuDef*%
%ADD22RoundRect,0.250000X-0.625000X0.375000X-0.625000X-0.375000X0.625000X-0.375000X0.625000X0.375000X0*%
%TD*%
%TA.AperFunction,SMDPad,CuDef*%
%ADD23RoundRect,0.250000X-0.650000X0.325000X-0.650000X-0.325000X0.650000X-0.325000X0.650000X0.325000X0*%
%TD*%
%TA.AperFunction,SMDPad,CuDef*%
%ADD24RoundRect,0.250000X0.625000X-0.312500X0.625000X0.312500X-0.625000X0.312500X-0.625000X-0.312500X0*%
%TD*%
%TA.AperFunction,SMDPad,CuDef*%
%ADD25RoundRect,0.112500X-0.187500X-0.112500X0.187500X-0.112500X0.187500X0.112500X-0.187500X0.112500X0*%
%TD*%
%TA.AperFunction,SMDPad,CuDef*%
%ADD26RoundRect,0.250000X0.325000X0.650000X-0.325000X0.650000X-0.325000X-0.650000X0.325000X-0.650000X0*%
%TD*%
%TA.AperFunction,SMDPad,CuDef*%
%ADD27RoundRect,0.112500X-0.112500X0.187500X-0.112500X-0.187500X0.112500X-0.187500X0.112500X0.187500X0*%
%TD*%
%TA.AperFunction,ComponentPad*%
%ADD28C,1.524000*%
%TD*%
%TA.AperFunction,SMDPad,CuDef*%
%ADD29R,1.200000X0.400000*%
%TD*%
%TA.AperFunction,ViaPad*%
%ADD30C,0.800000*%
%TD*%
%TA.AperFunction,Conductor*%
%ADD31C,0.300000*%
%TD*%
%TA.AperFunction,Conductor*%
%ADD32C,0.500000*%
%TD*%
%TA.AperFunction,Conductor*%
%ADD33C,0.200000*%
%TD*%
%TA.AperFunction,Conductor*%
%ADD34C,2.000000*%
%TD*%
%TA.AperFunction,Conductor*%
%ADD35C,0.250000*%
%TD*%
G04 APERTURE END LIST*
D10*
%TO.P,R3,1*%
%TO.N,/VFO*%
X117575000Y-61000000D03*
%TO.P,R3,2*%
%TO.N,Fault*%
X120500000Y-61000000D03*
%TD*%
D11*
%TO.P,J_Control1,1,Pin_1*%
%TO.N,U-Hi*%
X91000000Y-89080000D03*
D12*
%TO.P,J_Control1,2,Pin_2*%
%TO.N,V-Hi*%
X91000000Y-86540000D03*
%TO.P,J_Control1,3,Pin_3*%
%TO.N,W-Hi*%
X91000000Y-84000000D03*
%TO.P,J_Control1,4,Pin_4*%
%TO.N,U-Lo*%
X91000000Y-81460000D03*
%TO.P,J_Control1,5,Pin_5*%
%TO.N,V-Lo*%
X91000000Y-78920000D03*
%TO.P,J_Control1,6,Pin_6*%
%TO.N,W-Lo*%
X91000000Y-76380000D03*
%TD*%
D13*
%TO.P,D7,1,K*%
%TO.N,+5V*%
X164462500Y-70100000D03*
%TO.P,D7,2,A*%
%TO.N,/WCOP+*%
X164462500Y-68000000D03*
%TD*%
D10*
%TO.P,R21,1*%
%TO.N,/NU*%
X157575000Y-86000000D03*
%TO.P,R21,2*%
%TO.N,/UCOP+*%
X160500000Y-86000000D03*
%TD*%
D13*
%TO.P,D12,1,K*%
%TO.N,/UCOP+*%
X165425000Y-84050000D03*
%TO.P,D12,2,A*%
%TO.N,-30*%
X165425000Y-81950000D03*
%TD*%
D14*
%TO.P,R14,1*%
%TO.N,/UCOP-*%
X127000000Y-68000000D03*
%TO.P,R14,2*%
%TO.N,CurrentSense U*%
X127000000Y-70925000D03*
%TD*%
D15*
%TO.P,C10,1*%
%TO.N,Net-(U1-IGCM04F60GAXKMA1-VS(V))*%
X114700000Y-99455000D03*
%TO.P,C10,2*%
%TO.N,Net-(U1-IGCM04F60GAXKMA1-VB(V))*%
X114700000Y-97955000D03*
%TD*%
D13*
%TO.P,D10,1,K*%
%TO.N,/VCOP+*%
X174962500Y-74500000D03*
%TO.P,D10,2,A*%
%TO.N,-30*%
X174962500Y-72400000D03*
%TD*%
D16*
%TO.P,C6,1*%
%TO.N,/V_Lo*%
X101000000Y-77000000D03*
%TO.P,C6,2*%
%TO.N,-30*%
X103950000Y-77000000D03*
%TD*%
D11*
%TO.P,U15-5,1,IN*%
%TO.N,+15V*%
X175025000Y-93000000D03*
D12*
%TO.P,U15-5,2,GND*%
%TO.N,-30*%
X172485000Y-93000000D03*
%TO.P,U15-5,3,OUT*%
%TO.N,+5V*%
X169945000Y-93000000D03*
%TD*%
D10*
%TO.P,R16,1*%
%TO.N,/VFO*%
X117575000Y-64450000D03*
%TO.P,R16,2*%
%TO.N,Net-(U2A-+)*%
X120500000Y-64450000D03*
%TD*%
D17*
%TO.P,D15,1,K*%
%TO.N,/ITRIP*%
X166012500Y-62050000D03*
%TO.P,D15,2,A*%
%TO.N,/NW_D*%
X163912500Y-62050000D03*
%TD*%
D18*
%TO.P,R15,1*%
%TO.N,-30*%
X146425000Y-68500000D03*
%TO.P,R15,2*%
%TO.N,/VCOP-*%
X143500000Y-68500000D03*
%TD*%
D19*
%TO.P,R26,1*%
%TO.N,-30*%
X153405000Y-77500000D03*
D20*
%TO.P,R26,2*%
%TO.N,/NV*%
X151505000Y-77500000D03*
%TD*%
D17*
%TO.P,D14,1,K*%
%TO.N,/ITRIP*%
X176512500Y-81500000D03*
%TO.P,D14,2,A*%
%TO.N,/NV_D*%
X174412500Y-81500000D03*
%TD*%
D21*
%TO.P,C20,1*%
%TO.N,/NW_D*%
X160462500Y-61500000D03*
%TO.P,C20,2*%
%TO.N,-30*%
X160462500Y-58550000D03*
%TD*%
D18*
%TO.P,R8,1*%
%TO.N,/W_Hi*%
X99000000Y-85000000D03*
%TO.P,R8,2*%
%TO.N,W-Hi*%
X96075000Y-85000000D03*
%TD*%
D19*
%TO.P,R27,1*%
%TO.N,-30*%
X153000000Y-73000000D03*
D20*
%TO.P,R27,2*%
%TO.N,/NW*%
X151100000Y-73000000D03*
%TD*%
D22*
%TO.P,D17,1,K*%
%TO.N,Net-(D17-K)*%
X141500000Y-107675000D03*
%TO.P,D17,2,A*%
%TO.N,+5V*%
X141500000Y-110475000D03*
%TD*%
D23*
%TO.P,C23,1*%
%TO.N,+30-2*%
X150500000Y-101500000D03*
%TO.P,C23,2*%
%TO.N,-30*%
X150500000Y-104450000D03*
%TD*%
D24*
%TO.P,R1,1*%
%TO.N,/WCOP-*%
X141000000Y-64425000D03*
%TO.P,R1,2*%
%TO.N,CurrentSense W*%
X141000000Y-61500000D03*
%TD*%
D16*
%TO.P,C4,1*%
%TO.N,/W_Hi*%
X101050000Y-85000000D03*
%TO.P,C4,2*%
%TO.N,-30*%
X104000000Y-85000000D03*
%TD*%
D21*
%TO.P,C14,1*%
%TO.N,Net-(U1-IGCM04F60GAXKMA1-VS(U))*%
X109700000Y-106405000D03*
%TO.P,C14,2*%
%TO.N,Net-(U1-IGCM04F60GAXKMA1-VB(U))*%
X109700000Y-103455000D03*
%TD*%
%TO.P,C16,1*%
%TO.N,Net-(U1-IGCM04F60GAXKMA1-VS(W))*%
X109700000Y-94430000D03*
%TO.P,C16,2*%
%TO.N,Net-(U1-IGCM04F60GAXKMA1-VB(W))*%
X109700000Y-91480000D03*
%TD*%
D11*
%TO.P,J_POWER1,1,Pin_1*%
%TO.N,+30-2*%
X164000000Y-102500000D03*
D12*
%TO.P,J_POWER1,2,Pin_2*%
%TO.N,+30*%
X161460000Y-102500000D03*
%TO.P,J_POWER1,3,Pin_3*%
X158920000Y-102500000D03*
%TO.P,J_POWER1,4,Pin_4*%
%TO.N,-30*%
X156380000Y-102500000D03*
%TD*%
D14*
%TO.P,R30,1*%
%TO.N,Net-(D18-K)*%
X127000000Y-107575000D03*
%TO.P,R30,2*%
%TO.N,-30*%
X127000000Y-110500000D03*
%TD*%
%TO.P,R2,1*%
%TO.N,/VFO*%
X115000000Y-61075000D03*
%TO.P,R2,2*%
%TO.N,+3.3V*%
X115000000Y-64000000D03*
%TD*%
D25*
%TO.P,D1,1,K*%
%TO.N,+3.3V*%
X142400000Y-59000000D03*
%TO.P,D1,2,A*%
%TO.N,CurrentSense W*%
X144500000Y-59000000D03*
%TD*%
D18*
%TO.P,R11,1*%
%TO.N,/W_Lo*%
X98875000Y-73000000D03*
%TO.P,R11,2*%
%TO.N,W-Lo*%
X95950000Y-73000000D03*
%TD*%
D26*
%TO.P,C8,1*%
%TO.N,+15V*%
X113450000Y-77000000D03*
%TO.P,C8,2*%
%TO.N,-30*%
X110500000Y-77000000D03*
%TD*%
D11*
%TO.P,J3.3,1,Pin_1*%
%TO.N,-30*%
X91000000Y-70500000D03*
D12*
%TO.P,J3.3,2,Pin_2*%
%TO.N,+3.3V*%
X91000000Y-67960000D03*
%TO.P,J3.3,3,Pin_3*%
%TO.N,ShutDown*%
X91000000Y-65420000D03*
%TD*%
D10*
%TO.P,R18,1*%
%TO.N,-30*%
X121575000Y-68450000D03*
%TO.P,R18,2*%
%TO.N,/UCOP-*%
X124500000Y-68450000D03*
%TD*%
%TO.P,R24,1*%
%TO.N,/NU*%
X157500000Y-89500000D03*
%TO.P,R24,2*%
%TO.N,/NU_D*%
X160425000Y-89500000D03*
%TD*%
D14*
%TO.P,R29,1*%
%TO.N,Net-(D17-K)*%
X144000000Y-107575000D03*
%TO.P,R29,2*%
%TO.N,-30*%
X144000000Y-110500000D03*
%TD*%
D21*
%TO.P,C19,1*%
%TO.N,/UCOP+*%
X158500000Y-82500000D03*
%TO.P,C19,2*%
%TO.N,-30*%
X158500000Y-79550000D03*
%TD*%
D13*
%TO.P,D11,1,K*%
%TO.N,+5V*%
X165425000Y-88050000D03*
%TO.P,D11,2,A*%
%TO.N,/UCOP+*%
X165425000Y-85950000D03*
%TD*%
D26*
%TO.P,C12,1*%
%TO.N,+15V*%
X113450000Y-79500000D03*
%TO.P,C12,2*%
%TO.N,-30*%
X110500000Y-79500000D03*
%TD*%
D11*
%TO.P,J_Current1,1,Pin_1*%
%TO.N,Fault*%
X126380000Y-57000000D03*
D12*
%TO.P,J_Current1,2,Pin_2*%
%TO.N,Temperature Monitor*%
X128920000Y-57000000D03*
%TO.P,J_Current1,3,Pin_3*%
%TO.N,CurrentSense U*%
X131460000Y-57000000D03*
%TO.P,J_Current1,4,Pin_4*%
%TO.N,CurrentSense V*%
X134000000Y-57000000D03*
%TO.P,J_Current1,5,Pin_5*%
%TO.N,CurrentSense W*%
X136540000Y-57000000D03*
%TD*%
D13*
%TO.P,D5,1,K*%
%TO.N,+3.3V*%
X118500000Y-73100000D03*
%TO.P,D5,2,A*%
%TO.N,CurrentSense U*%
X118500000Y-71000000D03*
%TD*%
D21*
%TO.P,C15,1*%
%TO.N,Net-(U1-IGCM04F60GAXKMA1-VS(V))*%
X109700000Y-100405000D03*
%TO.P,C15,2*%
%TO.N,Net-(U1-IGCM04F60GAXKMA1-VB(V))*%
X109700000Y-97455000D03*
%TD*%
D14*
%TO.P,R5,1*%
%TO.N,/VCOP-*%
X141000000Y-68000000D03*
%TO.P,R5,2*%
%TO.N,CurrentSense V*%
X141000000Y-70925000D03*
%TD*%
D21*
%TO.P,C18,1*%
%TO.N,/VCOP+*%
X170962500Y-71500000D03*
%TO.P,C18,2*%
%TO.N,-30*%
X170962500Y-68550000D03*
%TD*%
D23*
%TO.P,C21,1*%
%TO.N,/NV_D*%
X170962500Y-80000000D03*
%TO.P,C21,2*%
%TO.N,-30*%
X170962500Y-82950000D03*
%TD*%
D16*
%TO.P,C7,1*%
%TO.N,/W_Lo*%
X101000000Y-73000000D03*
%TO.P,C7,2*%
%TO.N,-30*%
X103950000Y-73000000D03*
%TD*%
D18*
%TO.P,R7,1*%
%TO.N,/V_Hi*%
X98925000Y-89000000D03*
%TO.P,R7,2*%
%TO.N,V-Hi*%
X96000000Y-89000000D03*
%TD*%
D22*
%TO.P,D16,1,K*%
%TO.N,Net-(D16-K)*%
X133100000Y-107675000D03*
%TO.P,D16,2,A*%
%TO.N,+15V*%
X133100000Y-110475000D03*
%TD*%
D26*
%TO.P,C17,1*%
%TO.N,/ITRIP*%
X111500000Y-74500000D03*
%TO.P,C17,2*%
%TO.N,-30*%
X108550000Y-74500000D03*
%TD*%
D18*
%TO.P,R12,1*%
%TO.N,-30*%
X146425000Y-64000000D03*
%TO.P,R12,2*%
%TO.N,/WCOP-*%
X143500000Y-64000000D03*
%TD*%
%TO.P,R10,1*%
%TO.N,/V_Lo*%
X98950000Y-77000000D03*
%TO.P,R10,2*%
%TO.N,V-Lo*%
X96025000Y-77000000D03*
%TD*%
D11*
%TO.P,M1,1,U*%
%TO.N,Net-(M1-U)*%
X152500000Y-94525000D03*
D12*
%TO.P,M1,2,V*%
%TO.N,Net-(M1-V)*%
X152500000Y-91985000D03*
%TO.P,M1,3,W*%
%TO.N,Net-(M1-W)*%
X152500000Y-89445000D03*
%TD*%
D27*
%TO.P,D4,1,K*%
%TO.N,CurrentSense V*%
X149500000Y-67000000D03*
%TO.P,D4,2,A*%
%TO.N,-30*%
X149500000Y-69100000D03*
%TD*%
D10*
%TO.P,R22,1*%
%TO.N,/NW*%
X157037500Y-64550000D03*
%TO.P,R22,2*%
%TO.N,/NW_D*%
X159962500Y-64550000D03*
%TD*%
D14*
%TO.P,R17,1*%
%TO.N,-30*%
X123000000Y-61075000D03*
%TO.P,R17,2*%
%TO.N,Net-(U2A--)*%
X123000000Y-64000000D03*
%TD*%
D15*
%TO.P,C9,1*%
%TO.N,Net-(U1-IGCM04F60GAXKMA1-VS(U))*%
X114700000Y-104955000D03*
%TO.P,C9,2*%
%TO.N,Net-(U1-IGCM04F60GAXKMA1-VB(U))*%
X114700000Y-103455000D03*
%TD*%
D23*
%TO.P,C13,1*%
%TO.N,/WCOP+*%
X160462500Y-71100000D03*
%TO.P,C13,2*%
%TO.N,-30*%
X160462500Y-74050000D03*
%TD*%
D24*
%TO.P,R4,1*%
%TO.N,/ITRIP*%
X111500000Y-72000000D03*
%TO.P,R4,2*%
%TO.N,ShutDown*%
X111500000Y-69075000D03*
%TD*%
D14*
%TO.P,R28,1*%
%TO.N,Net-(D16-K)*%
X135600000Y-107575000D03*
%TO.P,R28,2*%
%TO.N,-30*%
X135600000Y-110500000D03*
%TD*%
D15*
%TO.P,C11,1*%
%TO.N,Net-(U1-IGCM04F60GAXKMA1-VS(W))*%
X114700000Y-93955000D03*
%TO.P,C11,2*%
%TO.N,Net-(U1-IGCM04F60GAXKMA1-VB(W))*%
X114700000Y-92455000D03*
%TD*%
D19*
%TO.P,R25,1*%
%TO.N,-30*%
X153400000Y-82500000D03*
D20*
%TO.P,R25,2*%
%TO.N,/NU*%
X151500000Y-82500000D03*
%TD*%
D23*
%TO.P,C22,1*%
%TO.N,/NU_D*%
X160500000Y-92550000D03*
%TO.P,C22,2*%
%TO.N,-30*%
X160500000Y-95500000D03*
%TD*%
D10*
%TO.P,R20,1*%
%TO.N,/NV*%
X168037500Y-74500000D03*
%TO.P,R20,2*%
%TO.N,/VCOP+*%
X170962500Y-74500000D03*
%TD*%
D28*
%TO.P,U1-IGCM04F60GAXKMA1,1,VS(U)*%
%TO.N,Net-(U1-IGCM04F60GAXKMA1-VS(U))*%
X118700000Y-104455000D03*
%TO.P,U1-IGCM04F60GAXKMA1,2,VB(U)*%
%TO.N,Net-(U1-IGCM04F60GAXKMA1-VB(U))*%
X121700000Y-102455000D03*
%TO.P,U1-IGCM04F60GAXKMA1,3,VS(V)*%
%TO.N,Net-(U1-IGCM04F60GAXKMA1-VS(V))*%
X118700000Y-99455000D03*
%TO.P,U1-IGCM04F60GAXKMA1,4,VB(V)*%
%TO.N,Net-(U1-IGCM04F60GAXKMA1-VB(V))*%
X121700000Y-97855000D03*
%TO.P,U1-IGCM04F60GAXKMA1,5,VS(W)*%
%TO.N,Net-(U1-IGCM04F60GAXKMA1-VS(W))*%
X118700000Y-94455000D03*
%TO.P,U1-IGCM04F60GAXKMA1,6,VB(W)*%
%TO.N,Net-(U1-IGCM04F60GAXKMA1-VB(W))*%
X121700000Y-92855000D03*
%TO.P,U1-IGCM04F60GAXKMA1,7,HIN(U)*%
%TO.N,/U_Hi*%
X118700000Y-89455000D03*
%TO.P,U1-IGCM04F60GAXKMA1,8,HIN(V)*%
%TO.N,/V_Hi*%
X121700000Y-87855000D03*
%TO.P,U1-IGCM04F60GAXKMA1,9,HIN(W)*%
%TO.N,/W_Hi*%
X118700000Y-86255000D03*
%TO.P,U1-IGCM04F60GAXKMA1,10,LIN(U)*%
%TO.N,/U_Lo*%
X121700000Y-84655000D03*
%TO.P,U1-IGCM04F60GAXKMA1,11,LIN(V)*%
%TO.N,/V_Lo*%
X118700000Y-83055000D03*
%TO.P,U1-IGCM04F60GAXKMA1,12,LIN(W)*%
%TO.N,/W_Lo*%
X121700000Y-81455000D03*
%TO.P,U1-IGCM04F60GAXKMA1,13,VDD*%
%TO.N,+15V*%
X118700000Y-79855000D03*
%TO.P,U1-IGCM04F60GAXKMA1,14,VFO*%
%TO.N,/VFO*%
X121700000Y-78255000D03*
%TO.P,U1-IGCM04F60GAXKMA1,15,ITRIP*%
%TO.N,/ITRIP*%
X118700000Y-76655000D03*
%TO.P,U1-IGCM04F60GAXKMA1,16,VSS*%
%TO.N,-30*%
X121700000Y-74655000D03*
%TO.P,U1-IGCM04F60GAXKMA1,17,NW*%
%TO.N,/NW*%
X147300000Y-72945000D03*
%TO.P,U1-IGCM04F60GAXKMA1,18,NV*%
%TO.N,/NV*%
X147300000Y-77675000D03*
%TO.P,U1-IGCM04F60GAXKMA1,19,NU*%
%TO.N,/NU*%
X147300000Y-82405000D03*
%TO.P,U1-IGCM04F60GAXKMA1,20,W*%
%TO.N,Net-(M1-W)*%
X147300000Y-87135000D03*
%TO.P,U1-IGCM04F60GAXKMA1,21,V*%
%TO.N,Net-(M1-V)*%
X147300000Y-91865000D03*
%TO.P,U1-IGCM04F60GAXKMA1,22,U*%
%TO.N,Net-(M1-U)*%
X147300000Y-96595000D03*
%TO.P,U1-IGCM04F60GAXKMA1,23,P*%
%TO.N,+30-2*%
X147300000Y-101325000D03*
%TO.P,U1-IGCM04F60GAXKMA1,24,NC*%
%TO.N,unconnected-(U1-IGCM04F60GAXKMA1-NC-Pad24)*%
X147300000Y-106055000D03*
%TD*%
D13*
%TO.P,D9,1,K*%
%TO.N,+5V*%
X174962500Y-78600000D03*
%TO.P,D9,2,A*%
%TO.N,/VCOP+*%
X174962500Y-76500000D03*
%TD*%
D18*
%TO.P,R9,1*%
%TO.N,/U_Lo*%
X99000000Y-81000000D03*
%TO.P,R9,2*%
%TO.N,U-Lo*%
X96075000Y-81000000D03*
%TD*%
D13*
%TO.P,D6,1,K*%
%TO.N,CurrentSense U*%
X118500000Y-69100000D03*
%TO.P,D6,2,A*%
%TO.N,-30*%
X118500000Y-67000000D03*
%TD*%
D26*
%TO.P,C1,1*%
%TO.N,Fault*%
X120500000Y-57500000D03*
%TO.P,C1,2*%
%TO.N,-30*%
X117550000Y-57500000D03*
%TD*%
D22*
%TO.P,D18,1,K*%
%TO.N,Net-(D18-K)*%
X124500000Y-107700000D03*
%TO.P,D18,2,A*%
%TO.N,+30-2*%
X124500000Y-110500000D03*
%TD*%
D27*
%TO.P,D3,1,K*%
%TO.N,+3.3V*%
X149500000Y-63400000D03*
%TO.P,D3,2,A*%
%TO.N,CurrentSense V*%
X149500000Y-65500000D03*
%TD*%
D13*
%TO.P,D8,1,K*%
%TO.N,/WCOP+*%
X164462500Y-66562500D03*
%TO.P,D8,2,A*%
%TO.N,-30*%
X164462500Y-64462500D03*
%TD*%
D16*
%TO.P,C3,1*%
%TO.N,/V_Hi*%
X101000000Y-89000000D03*
%TO.P,C3,2*%
%TO.N,-30*%
X103950000Y-89000000D03*
%TD*%
%TO.P,C5,1*%
%TO.N,/U_Lo*%
X101050000Y-81000000D03*
%TO.P,C5,2*%
%TO.N,-30*%
X104000000Y-81000000D03*
%TD*%
D11*
%TO.P,U30-15,1,IN*%
%TO.N,+30*%
X172460000Y-100500000D03*
D12*
%TO.P,U30-15,2,GND*%
%TO.N,-30*%
X175000000Y-100500000D03*
%TO.P,U30-15,3,OUT*%
%TO.N,+15V*%
X177540000Y-100500000D03*
%TD*%
D10*
%TO.P,R19,1*%
%TO.N,/NW*%
X157037500Y-68050000D03*
%TO.P,R19,2*%
%TO.N,/WCOP+*%
X159962500Y-68050000D03*
%TD*%
D24*
%TO.P,R13,1*%
%TO.N,Net-(U2A--)*%
X127000000Y-64000000D03*
%TO.P,R13,2*%
%TO.N,Temperature Monitor*%
X127000000Y-61075000D03*
%TD*%
D17*
%TO.P,D13,1,K*%
%TO.N,/ITRIP*%
X166475000Y-91000000D03*
%TO.P,D13,2,A*%
%TO.N,/NU_D*%
X164375000Y-91000000D03*
%TD*%
D16*
%TO.P,C2,1*%
%TO.N,/U_Hi*%
X101125000Y-93000000D03*
%TO.P,C2,2*%
%TO.N,-30*%
X104075000Y-93000000D03*
%TD*%
D29*
%TO.P,U2,1*%
%TO.N,Temperature Monitor*%
X130550000Y-64050000D03*
%TO.P,U2,2,-*%
%TO.N,Net-(U2A--)*%
X130550000Y-64700000D03*
%TO.P,U2,3,+*%
%TO.N,Net-(U2A-+)*%
X130550000Y-65350000D03*
%TO.P,U2,4,V+*%
%TO.N,+5V*%
X130550000Y-66000000D03*
%TO.P,U2,5,+*%
%TO.N,/UCOP+*%
X130550000Y-66650000D03*
%TO.P,U2,6,-*%
%TO.N,/UCOP-*%
X130550000Y-67300000D03*
%TO.P,U2,7*%
%TO.N,CurrentSense U*%
X130550000Y-67950000D03*
%TO.P,U2,8*%
%TO.N,CurrentSense V*%
X137450000Y-67950000D03*
%TO.P,U2,9,-*%
%TO.N,/VCOP-*%
X137450000Y-67300000D03*
%TO.P,U2,10,+*%
%TO.N,/VCOP+*%
X137450000Y-66650000D03*
%TO.P,U2,11,V-*%
%TO.N,-30*%
X137450000Y-66000000D03*
%TO.P,U2,12,+*%
%TO.N,/WCOP+*%
X137450000Y-65350000D03*
%TO.P,U2,13,-*%
%TO.N,/WCOP-*%
X137450000Y-64700000D03*
%TO.P,U2,14*%
%TO.N,CurrentSense W*%
X137450000Y-64050000D03*
%TD*%
D18*
%TO.P,R6,1*%
%TO.N,/U_Hi*%
X99000000Y-93000000D03*
%TO.P,R6,2*%
%TO.N,U-Hi*%
X96075000Y-93000000D03*
%TD*%
D10*
%TO.P,R23,1*%
%TO.N,/NV*%
X167962500Y-77500000D03*
%TO.P,R23,2*%
%TO.N,/NV_D*%
X170887500Y-77500000D03*
%TD*%
D25*
%TO.P,D2,1,K*%
%TO.N,CurrentSense W*%
X146450000Y-59000000D03*
%TO.P,D2,2,A*%
%TO.N,-30*%
X148550000Y-59000000D03*
%TD*%
D30*
%TO.N,-30*%
X162500000Y-97000000D03*
X123000000Y-59000000D03*
X153500000Y-111000000D03*
X148000000Y-63500000D03*
X154500000Y-108000000D03*
X106000000Y-81500000D03*
X120000000Y-67000000D03*
X107000000Y-73000000D03*
X151500000Y-108000000D03*
X149500000Y-70500000D03*
X171000000Y-85000000D03*
X151500000Y-106500000D03*
X105500000Y-88500000D03*
X153000000Y-108000000D03*
X106000000Y-92000000D03*
X150000000Y-106500000D03*
X155000000Y-111000000D03*
X137500000Y-111500000D03*
X152000000Y-111000000D03*
X129000000Y-111000000D03*
X150500000Y-59000000D03*
X115500000Y-57500000D03*
X162500000Y-74000000D03*
X154000000Y-103500000D03*
X156000000Y-108000000D03*
X165000000Y-80500000D03*
X166500000Y-65000000D03*
X174500000Y-71000000D03*
X150500000Y-111000000D03*
X168500000Y-67000000D03*
X153000000Y-105000000D03*
X105500000Y-85000000D03*
X150000000Y-108000000D03*
X160500000Y-56500000D03*
X153000000Y-106500000D03*
X106000000Y-77500000D03*
%TO.N,+15V*%
X117500000Y-112500000D03*
%TO.N,/WCOP+*%
X135500000Y-65000000D03*
X158500000Y-71000000D03*
%TO.N,/ITRIP*%
X143000000Y-54500000D03*
%TO.N,/VCOP+*%
X135500000Y-67500000D03*
X155500000Y-75000000D03*
%TO.N,/UCOP+*%
X160500000Y-83000000D03*
X126000000Y-66500000D03*
%TO.N,+30-2*%
X169000000Y-104500000D03*
X120000000Y-110500000D03*
%TO.N,+3.3V*%
X113500000Y-67000000D03*
X120500000Y-72500000D03*
%TO.N,+5V*%
X139250000Y-111250000D03*
X164500000Y-72500000D03*
X132500000Y-64500000D03*
X175000000Y-80000000D03*
X169000000Y-88500000D03*
%TO.N,ShutDown*%
X108000000Y-69000000D03*
X104500000Y-65500000D03*
%TD*%
D31*
%TO.N,Fault*%
X120500000Y-58000000D02*
X121500000Y-57000000D01*
X120500000Y-61000000D02*
X120500000Y-58000000D01*
X121500000Y-57000000D02*
X126380000Y-57000000D01*
D32*
%TO.N,-30*%
X164462500Y-64462500D02*
X165962500Y-64462500D01*
X160462500Y-74050000D02*
X162450000Y-74050000D01*
X160462500Y-56537500D02*
X160500000Y-56500000D01*
X171000000Y-82987500D02*
X170962500Y-82950000D01*
D33*
X104075000Y-93000000D02*
X105075000Y-92000000D01*
D32*
X160500000Y-95500000D02*
X162000000Y-97000000D01*
X115500000Y-57500000D02*
X117550000Y-57500000D01*
X107050000Y-73000000D02*
X107000000Y-73000000D01*
X108550000Y-74500000D02*
X107050000Y-73000000D01*
D34*
X172485000Y-96425000D02*
X175000000Y-98940000D01*
D33*
X103950000Y-77000000D02*
X105500000Y-77000000D01*
D32*
X144500000Y-66000000D02*
X144500000Y-66575000D01*
X174962500Y-72400000D02*
X174962500Y-71462500D01*
X110500000Y-76450000D02*
X108550000Y-74500000D01*
D33*
X104000000Y-81000000D02*
X105500000Y-81000000D01*
D32*
X147500000Y-110500000D02*
X150000000Y-108000000D01*
X148550000Y-59000000D02*
X150500000Y-59000000D01*
X144000000Y-110500000D02*
X147500000Y-110500000D01*
X110500000Y-77000000D02*
X110500000Y-76450000D01*
D33*
X103950000Y-89000000D02*
X105000000Y-89000000D01*
D34*
X175000000Y-98940000D02*
X175000000Y-100500000D01*
D32*
X170050000Y-68550000D02*
X168500000Y-67000000D01*
D33*
X105500000Y-77000000D02*
X106000000Y-77500000D01*
D32*
X123000000Y-61075000D02*
X123000000Y-59000000D01*
X118500000Y-67000000D02*
X120000000Y-67000000D01*
X144500000Y-66575000D02*
X146425000Y-68500000D01*
X144500000Y-65925000D02*
X146425000Y-64000000D01*
X110500000Y-79500000D02*
X110500000Y-77000000D01*
X136500000Y-110500000D02*
X135600000Y-110500000D01*
X158500000Y-79550000D02*
X164050000Y-79550000D01*
X162450000Y-74050000D02*
X162500000Y-74000000D01*
X174962500Y-71462500D02*
X174500000Y-71000000D01*
X165425000Y-81950000D02*
X165425000Y-80925000D01*
X107000000Y-73000000D02*
X103950000Y-73000000D01*
X137450000Y-66000000D02*
X144500000Y-66000000D01*
D33*
X105075000Y-92000000D02*
X106000000Y-92000000D01*
D32*
X147500000Y-64000000D02*
X146425000Y-64000000D01*
X127000000Y-110500000D02*
X128500000Y-110500000D01*
X149500000Y-69100000D02*
X149500000Y-70500000D01*
D33*
X105500000Y-81000000D02*
X106000000Y-81500000D01*
D32*
X165962500Y-64462500D02*
X166500000Y-65000000D01*
X160462500Y-58550000D02*
X160462500Y-56537500D01*
X144500000Y-66000000D02*
X144500000Y-65925000D01*
X170962500Y-68550000D02*
X170050000Y-68550000D01*
X137500000Y-111500000D02*
X136500000Y-110500000D01*
X164050000Y-79550000D02*
X165000000Y-80500000D01*
X121575000Y-68450000D02*
X121450000Y-68450000D01*
D34*
X172485000Y-93000000D02*
X172485000Y-96425000D01*
D33*
X105000000Y-89000000D02*
X105500000Y-88500000D01*
X104000000Y-85000000D02*
X105500000Y-85000000D01*
D32*
X121450000Y-68450000D02*
X120000000Y-67000000D01*
X162000000Y-97000000D02*
X162500000Y-97000000D01*
X128500000Y-110500000D02*
X129000000Y-111000000D01*
X165425000Y-80925000D02*
X165000000Y-80500000D01*
X148000000Y-63500000D02*
X147500000Y-64000000D01*
X171000000Y-85000000D02*
X171000000Y-82987500D01*
D31*
%TO.N,/U_Hi*%
X107000000Y-93000000D02*
X105000000Y-95000000D01*
X108545000Y-89455000D02*
X107000000Y-91000000D01*
X107000000Y-91000000D02*
X107000000Y-93000000D01*
X118700000Y-89455000D02*
X108545000Y-89455000D01*
X105000000Y-95000000D02*
X101000000Y-95000000D01*
X101125000Y-93000000D02*
X99000000Y-93000000D01*
X101000000Y-95000000D02*
X99000000Y-93000000D01*
%TO.N,/V_Hi*%
X105000000Y-91000000D02*
X103000000Y-91000000D01*
X121700000Y-87855000D02*
X108145000Y-87855000D01*
X103000000Y-91000000D02*
X101000000Y-89000000D01*
X101000000Y-89000000D02*
X98925000Y-89000000D01*
X108145000Y-87855000D02*
X105000000Y-91000000D01*
%TO.N,/W_Hi*%
X101050000Y-86050000D02*
X101050000Y-85000000D01*
X102000000Y-87000000D02*
X101050000Y-86050000D01*
X106000000Y-87000000D02*
X102000000Y-87000000D01*
X118700000Y-86255000D02*
X106745000Y-86255000D01*
X101050000Y-85000000D02*
X99000000Y-85000000D01*
X106745000Y-86255000D02*
X106000000Y-87000000D01*
%TO.N,/U_Lo*%
X105000000Y-83000000D02*
X102000000Y-83000000D01*
X106655000Y-84655000D02*
X105000000Y-83000000D01*
X101000000Y-82000000D02*
X101050000Y-81950000D01*
X99000000Y-81000000D02*
X101050000Y-81000000D01*
X102000000Y-83000000D02*
X101000000Y-82000000D01*
X101050000Y-81950000D02*
X101050000Y-81000000D01*
X121700000Y-84655000D02*
X106655000Y-84655000D01*
%TO.N,/V_Lo*%
X103000000Y-79000000D02*
X101000000Y-77000000D01*
X118700000Y-83055000D02*
X109055000Y-83055000D01*
X105000000Y-79000000D02*
X103000000Y-79000000D01*
X109055000Y-83055000D02*
X105000000Y-79000000D01*
X98950000Y-77000000D02*
X101000000Y-77000000D01*
%TO.N,/W_Lo*%
X98875000Y-73000000D02*
X101000000Y-73000000D01*
X102000000Y-75000000D02*
X101000000Y-74000000D01*
X105000000Y-75000000D02*
X102000000Y-75000000D01*
X108000000Y-78000000D02*
X105000000Y-75000000D01*
X109455000Y-81455000D02*
X108000000Y-80000000D01*
X108000000Y-80000000D02*
X108000000Y-78000000D01*
X121700000Y-81455000D02*
X109455000Y-81455000D01*
X101000000Y-74000000D02*
X101000000Y-73000000D01*
%TO.N,+15V*%
X115500000Y-79050000D02*
X115500000Y-79855000D01*
X113450000Y-77000000D02*
X115500000Y-79050000D01*
D34*
X177540000Y-95515000D02*
X177540000Y-100500000D01*
D31*
X115500000Y-79855000D02*
X113805000Y-79855000D01*
D34*
X175025000Y-93000000D02*
X177540000Y-95515000D01*
D32*
X117500000Y-112500000D02*
X132000000Y-112500000D01*
X133100000Y-110475000D02*
X133100000Y-110900000D01*
X133100000Y-110900000D02*
X131500000Y-112500000D01*
D31*
X118700000Y-79855000D02*
X115500000Y-79855000D01*
D32*
X177540000Y-101460000D02*
X177540000Y-100500000D01*
X131500000Y-112500000D02*
X166500000Y-112500000D01*
X166500000Y-112500000D02*
X177540000Y-101460000D01*
D31*
X113805000Y-79855000D02*
X113450000Y-79500000D01*
%TO.N,Net-(U1-IGCM04F60GAXKMA1-VS(U))*%
X114700000Y-104955000D02*
X118200000Y-104955000D01*
X118200000Y-104955000D02*
X118700000Y-104455000D01*
X113045000Y-104955000D02*
X111595000Y-106405000D01*
X114700000Y-104955000D02*
X113045000Y-104955000D01*
X111595000Y-106405000D02*
X109700000Y-106405000D01*
%TO.N,Net-(U1-IGCM04F60GAXKMA1-VB(U))*%
X114700000Y-103455000D02*
X115700000Y-102455000D01*
X109700000Y-103455000D02*
X114700000Y-103455000D01*
X115700000Y-102455000D02*
X121700000Y-102455000D01*
%TO.N,Net-(U1-IGCM04F60GAXKMA1-VS(V))*%
X113750000Y-100405000D02*
X114700000Y-99455000D01*
X109700000Y-100405000D02*
X113750000Y-100405000D01*
X114700000Y-99455000D02*
X118700000Y-99455000D01*
%TO.N,Net-(U1-IGCM04F60GAXKMA1-VB(V))*%
X121600000Y-97955000D02*
X121700000Y-97855000D01*
X114200000Y-97455000D02*
X114700000Y-97955000D01*
X114700000Y-97955000D02*
X121600000Y-97955000D01*
X109700000Y-97455000D02*
X114200000Y-97455000D01*
%TO.N,Net-(U1-IGCM04F60GAXKMA1-VS(W))*%
X114700000Y-93955000D02*
X118200000Y-93955000D01*
X114225000Y-94430000D02*
X114700000Y-93955000D01*
X109700000Y-94430000D02*
X114225000Y-94430000D01*
X118200000Y-93955000D02*
X118700000Y-94455000D01*
%TO.N,Net-(U1-IGCM04F60GAXKMA1-VB(W))*%
X114700000Y-92455000D02*
X121300000Y-92455000D01*
X121300000Y-92455000D02*
X121700000Y-92855000D01*
X109700000Y-91480000D02*
X113725000Y-91480000D01*
X113725000Y-91480000D02*
X114700000Y-92455000D01*
%TO.N,/WCOP+*%
X135850000Y-65350000D02*
X137450000Y-65350000D01*
X159962500Y-70600000D02*
X160462500Y-71100000D01*
X160012500Y-68000000D02*
X159962500Y-68050000D01*
X159962500Y-68050000D02*
X159962500Y-70600000D01*
X160462500Y-71100000D02*
X158600000Y-71100000D01*
X164462500Y-66562500D02*
X164462500Y-68000000D01*
X164512500Y-66512500D02*
X164462500Y-66562500D01*
X135500000Y-65000000D02*
X135850000Y-65350000D01*
X158600000Y-71100000D02*
X158500000Y-71000000D01*
X164462500Y-68000000D02*
X160012500Y-68000000D01*
%TO.N,/ITRIP*%
X177500000Y-80500000D02*
X176512500Y-81487500D01*
X166012500Y-62050000D02*
X168550000Y-62050000D01*
X176512500Y-81500000D02*
X176512500Y-85987500D01*
X115655000Y-76655000D02*
X118700000Y-76655000D01*
X113500000Y-74500000D02*
X115655000Y-76655000D01*
X168550000Y-62050000D02*
X177500000Y-71000000D01*
X111500000Y-74500000D02*
X111500000Y-72000000D01*
X164000000Y-54500000D02*
X143000000Y-54500000D01*
X176512500Y-85987500D02*
X171500000Y-91000000D01*
X166012500Y-62050000D02*
X166012500Y-56512500D01*
X176512500Y-81487500D02*
X176512500Y-81500000D01*
X166012500Y-56512500D02*
X164000000Y-54500000D01*
X177500000Y-71000000D02*
X177500000Y-80500000D01*
X171500000Y-91000000D02*
X166475000Y-91000000D01*
X111500000Y-74500000D02*
X113500000Y-74500000D01*
%TO.N,/VCOP+*%
X136350000Y-66650000D02*
X137450000Y-66650000D01*
X167000000Y-71500000D02*
X165500000Y-73000000D01*
X162500000Y-76000000D02*
X160500000Y-76000000D01*
X156500000Y-76000000D02*
X155500000Y-75000000D01*
X160500000Y-76000000D02*
X156500000Y-76000000D01*
X170962500Y-71500000D02*
X170962500Y-74500000D01*
X165500000Y-73000000D02*
X162500000Y-76000000D01*
X170962500Y-71500000D02*
X167000000Y-71500000D01*
X135500000Y-67500000D02*
X136350000Y-66650000D01*
X174962500Y-74500000D02*
X174962500Y-76500000D01*
X170962500Y-74500000D02*
X174962500Y-74500000D01*
%TO.N,/UCOP+*%
X126000000Y-66500000D02*
X126150000Y-66650000D01*
X160475000Y-83000000D02*
X160425000Y-82950000D01*
X126150000Y-66650000D02*
X130550000Y-66650000D01*
X160500000Y-83000000D02*
X160475000Y-83000000D01*
X160500000Y-83025000D02*
X160500000Y-83000000D01*
X158500000Y-82500000D02*
X160000000Y-82500000D01*
X160500000Y-86000000D02*
X160500000Y-83025000D01*
X165425000Y-85950000D02*
X160550000Y-85950000D01*
X165425000Y-84050000D02*
X165425000Y-85950000D01*
X160000000Y-82500000D02*
X160500000Y-83000000D01*
X160550000Y-85950000D02*
X160500000Y-86000000D01*
X160500000Y-83025000D02*
X160500000Y-83025000D01*
%TO.N,/NW_D*%
X163912500Y-62050000D02*
X161012500Y-62050000D01*
X159962500Y-64550000D02*
X159962500Y-62000000D01*
X159962500Y-62000000D02*
X160462500Y-61500000D01*
X161012500Y-62050000D02*
X160462500Y-61500000D01*
%TO.N,/NV_D*%
X170962500Y-80000000D02*
X172912500Y-80000000D01*
X172912500Y-80000000D02*
X174412500Y-81500000D01*
X170962500Y-77575000D02*
X170887500Y-77500000D01*
X170962500Y-80000000D02*
X170962500Y-77575000D01*
%TO.N,/NU_D*%
X164375000Y-91000000D02*
X161925000Y-91000000D01*
X160500000Y-92550000D02*
X160500000Y-89575000D01*
X160500000Y-89575000D02*
X160425000Y-89500000D01*
X161925000Y-91000000D02*
X160425000Y-89500000D01*
D32*
%TO.N,+30-2*%
X120000000Y-110500000D02*
X120500000Y-110500000D01*
X124500000Y-110500000D02*
X120000000Y-110500000D01*
X166000000Y-104500000D02*
X164000000Y-102500000D01*
X169000000Y-104500000D02*
X166000000Y-104500000D01*
D31*
%TO.N,+3.3V*%
X111500000Y-58500000D02*
X111500000Y-60500000D01*
X116500000Y-53500000D02*
X111500000Y-58500000D01*
X144800000Y-56000000D02*
X142400000Y-58400000D01*
X149500000Y-62500000D02*
X152000000Y-60000000D01*
X118500000Y-73100000D02*
X119900000Y-73100000D01*
X137500000Y-53500000D02*
X116500000Y-53500000D01*
X142400000Y-58400000D02*
X137500000Y-53500000D01*
X142400000Y-59000000D02*
X142400000Y-58400000D01*
X111500000Y-60500000D02*
X115000000Y-64000000D01*
X152000000Y-60000000D02*
X152000000Y-57500000D01*
D32*
X105540000Y-67960000D02*
X109500000Y-64000000D01*
D31*
X149500000Y-63400000D02*
X149500000Y-62500000D01*
D32*
X109500000Y-64000000D02*
X115000000Y-64000000D01*
D31*
X119900000Y-73100000D02*
X120500000Y-72500000D01*
X113500000Y-65500000D02*
X113500000Y-67000000D01*
X115000000Y-64000000D02*
X113500000Y-65500000D01*
X150500000Y-56000000D02*
X144800000Y-56000000D01*
X152000000Y-57500000D02*
X150500000Y-56000000D01*
D32*
X91000000Y-67960000D02*
X105540000Y-67960000D01*
D31*
%TO.N,CurrentSense W*%
X144500000Y-60000000D02*
X144500000Y-59000000D01*
X144500000Y-59000000D02*
X146450000Y-59000000D01*
X137450000Y-63050000D02*
X139000000Y-61500000D01*
X143000000Y-61500000D02*
X144500000Y-60000000D01*
X141000000Y-61500000D02*
X143000000Y-61500000D01*
X137450000Y-64050000D02*
X137450000Y-63050000D01*
X137450000Y-64050000D02*
X137450000Y-57910000D01*
X139000000Y-61500000D02*
X141000000Y-61500000D01*
X146500000Y-59050000D02*
X146450000Y-59000000D01*
X137450000Y-57910000D02*
X136540000Y-57000000D01*
%TO.N,CurrentSense V*%
X134500000Y-57500000D02*
X134000000Y-57000000D01*
X137450000Y-67950000D02*
X137450000Y-68950000D01*
X147075000Y-70925000D02*
X148000000Y-70000000D01*
X134500000Y-68500000D02*
X134500000Y-57500000D01*
X134950000Y-68950000D02*
X134500000Y-68500000D01*
X141000000Y-70925000D02*
X139425000Y-70925000D01*
X148000000Y-70000000D02*
X148000000Y-68500000D01*
X141000000Y-70925000D02*
X147075000Y-70925000D01*
X148000000Y-68500000D02*
X149500000Y-67000000D01*
X137450000Y-68950000D02*
X134950000Y-68950000D01*
X149500000Y-65500000D02*
X149500000Y-67000000D01*
X139425000Y-70925000D02*
X137450000Y-68950000D01*
%TO.N,CurrentSense U*%
X118500000Y-71000000D02*
X118500000Y-69100000D01*
X118575000Y-70925000D02*
X118500000Y-71000000D01*
X133500000Y-65900000D02*
X133500000Y-62500000D01*
X127000000Y-70925000D02*
X118575000Y-70925000D01*
X133500000Y-62500000D02*
X131460000Y-60460000D01*
X130550000Y-67950000D02*
X130550000Y-69950000D01*
X129575000Y-70925000D02*
X127000000Y-70925000D01*
X130550000Y-69950000D02*
X129575000Y-70925000D01*
X130550000Y-67950000D02*
X131450000Y-67950000D01*
X131460000Y-60460000D02*
X131460000Y-57000000D01*
X131450000Y-67950000D02*
X133500000Y-65900000D01*
%TO.N,+5V*%
X131450000Y-66000000D02*
X132500000Y-64950000D01*
D32*
X140025000Y-110475000D02*
X141500000Y-110475000D01*
X164500000Y-72500000D02*
X164500000Y-70137500D01*
X139250000Y-111250000D02*
X140025000Y-110475000D01*
D31*
X132500000Y-64950000D02*
X132500000Y-64500000D01*
D32*
X175000000Y-78637500D02*
X174962500Y-78600000D01*
X169000000Y-88500000D02*
X165875000Y-88500000D01*
D31*
X130550000Y-66000000D02*
X131450000Y-66000000D01*
D32*
X165875000Y-88500000D02*
X165425000Y-88050000D01*
X175000000Y-80000000D02*
X175000000Y-78637500D01*
X164500000Y-70137500D02*
X164462500Y-70100000D01*
D31*
%TO.N,ShutDown*%
X108000000Y-69000000D02*
X108075000Y-69075000D01*
X108075000Y-69075000D02*
X111500000Y-69075000D01*
X91000000Y-65420000D02*
X104420000Y-65420000D01*
X104420000Y-65420000D02*
X104500000Y-65500000D01*
%TO.N,U-Hi*%
X92155000Y-89080000D02*
X91000000Y-89080000D01*
X96075000Y-93000000D02*
X92155000Y-89080000D01*
%TO.N,V-Hi*%
X96000000Y-89000000D02*
X93540000Y-86540000D01*
X93540000Y-86540000D02*
X91000000Y-86540000D01*
%TO.N,W-Hi*%
X95075000Y-84000000D02*
X91000000Y-84000000D01*
X96075000Y-85000000D02*
X95075000Y-84000000D01*
%TO.N,U-Lo*%
X91460000Y-81000000D02*
X91000000Y-81460000D01*
X96075000Y-81000000D02*
X91460000Y-81000000D01*
%TO.N,V-Lo*%
X91000000Y-78920000D02*
X94105000Y-78920000D01*
X94105000Y-78920000D02*
X96025000Y-77000000D01*
%TO.N,W-Lo*%
X91000000Y-76380000D02*
X94380000Y-73000000D01*
X94380000Y-73000000D02*
X95950000Y-73000000D01*
%TO.N,Temperature Monitor*%
X128920000Y-60920000D02*
X128920000Y-57000000D01*
X130550000Y-62550000D02*
X129075000Y-61075000D01*
X129075000Y-61075000D02*
X128920000Y-60920000D01*
X130550000Y-64050000D02*
X130550000Y-62550000D01*
X129075000Y-61075000D02*
X127000000Y-61075000D01*
D34*
%TO.N,+30*%
X158920000Y-102500000D02*
X161460000Y-102500000D01*
X172460000Y-104040000D02*
X172460000Y-100500000D01*
X169500000Y-107000000D02*
X172460000Y-104040000D01*
X163420000Y-107000000D02*
X169500000Y-107000000D01*
X158920000Y-102500000D02*
X163420000Y-107000000D01*
%TO.N,Net-(M1-U)*%
X147300000Y-96595000D02*
X150430000Y-96595000D01*
X150430000Y-96595000D02*
X152500000Y-94525000D01*
%TO.N,Net-(M1-V)*%
X152500000Y-91985000D02*
X147420000Y-91985000D01*
X147420000Y-91985000D02*
X147300000Y-91865000D01*
%TO.N,Net-(M1-W)*%
X150190000Y-87135000D02*
X152500000Y-89445000D01*
X147300000Y-87135000D02*
X150190000Y-87135000D01*
D31*
%TO.N,/WCOP-*%
X141000000Y-64425000D02*
X143075000Y-64425000D01*
X140725000Y-64700000D02*
X137450000Y-64700000D01*
X143075000Y-64425000D02*
X143500000Y-64000000D01*
X141000000Y-64425000D02*
X140725000Y-64700000D01*
%TO.N,/VFO*%
X117575000Y-64450000D02*
X115525000Y-66500000D01*
X117575000Y-61000000D02*
X117575000Y-64450000D01*
X119000000Y-74500000D02*
X120500000Y-76000000D01*
X117500000Y-74500000D02*
X119000000Y-74500000D01*
X115500000Y-66500000D02*
X115500000Y-72500000D01*
X120500000Y-77055000D02*
X121700000Y-78255000D01*
X117575000Y-61000000D02*
X115075000Y-61000000D01*
X115500000Y-72500000D02*
X117500000Y-74500000D01*
X115525000Y-66500000D02*
X115500000Y-66500000D01*
X120500000Y-76000000D02*
X120500000Y-77055000D01*
X115075000Y-61000000D02*
X115000000Y-61075000D01*
%TO.N,/VCOP-*%
X143500000Y-68500000D02*
X141500000Y-68500000D01*
X141000000Y-68000000D02*
X140300000Y-67300000D01*
X141500000Y-68500000D02*
X141000000Y-68000000D01*
X140300000Y-67300000D02*
X137450000Y-67300000D01*
%TO.N,Net-(U2A--)*%
X127000000Y-64000000D02*
X123000000Y-64000000D01*
X130550000Y-64700000D02*
X127700000Y-64700000D01*
X127700000Y-64700000D02*
X127000000Y-64000000D01*
%TO.N,/UCOP-*%
X126550000Y-68450000D02*
X127000000Y-68000000D01*
X127000000Y-68000000D02*
X127700000Y-67300000D01*
X124500000Y-68450000D02*
X126550000Y-68450000D01*
X127700000Y-67300000D02*
X130550000Y-67300000D01*
%TO.N,Net-(U2A-+)*%
X120500000Y-64450000D02*
X121400000Y-65350000D01*
X121400000Y-65350000D02*
X130550000Y-65350000D01*
D34*
%TO.N,/NW*%
X151045000Y-72945000D02*
X151100000Y-73000000D01*
D31*
X151100000Y-70400000D02*
X153450000Y-68050000D01*
X153450000Y-68050000D02*
X157037500Y-68050000D01*
D34*
X147300000Y-72945000D02*
X151045000Y-72945000D01*
D31*
X157037500Y-68050000D02*
X157037500Y-64550000D01*
X151100000Y-73000000D02*
X151100000Y-70400000D01*
%TO.N,/NV*%
X152500000Y-80000000D02*
X151505000Y-79005000D01*
D34*
X151330000Y-77675000D02*
X151505000Y-77500000D01*
D31*
X168037500Y-74500000D02*
X168037500Y-77425000D01*
D34*
X147300000Y-77675000D02*
X151330000Y-77675000D01*
D31*
X167962500Y-77500000D02*
X157000000Y-77500000D01*
X157000000Y-77500000D02*
X154500000Y-80000000D01*
X151505000Y-79005000D02*
X151505000Y-77500000D01*
X154500000Y-80000000D02*
X152500000Y-80000000D01*
X168037500Y-77425000D02*
X167962500Y-77500000D01*
D34*
%TO.N,/NU*%
X147300000Y-82405000D02*
X151405000Y-82405000D01*
D31*
X151500000Y-84000000D02*
X151500000Y-82500000D01*
X152500000Y-85000000D02*
X151500000Y-84000000D01*
X156575000Y-85000000D02*
X152500000Y-85000000D01*
D35*
X157500000Y-89500000D02*
X157500000Y-86075000D01*
D31*
X157575000Y-86000000D02*
X156575000Y-85000000D01*
D34*
X151405000Y-82405000D02*
X151500000Y-82500000D01*
D35*
X157500000Y-86075000D02*
X157575000Y-86000000D01*
D31*
%TO.N,Net-(D16-K)*%
X135500000Y-107675000D02*
X135600000Y-107575000D01*
X133100000Y-107675000D02*
X135500000Y-107675000D01*
%TO.N,Net-(D17-K)*%
X141500000Y-107675000D02*
X143900000Y-107675000D01*
X143900000Y-107675000D02*
X144000000Y-107575000D01*
%TO.N,Net-(D18-K)*%
X124500000Y-107700000D02*
X126875000Y-107700000D01*
X126875000Y-107700000D02*
X127000000Y-107575000D01*
%TD*%
%TA.AperFunction,Conductor*%
%TO.N,-30*%
G36*
X157015677Y-101019685D02*
G01*
X157036319Y-101036319D01*
X157463681Y-101463681D01*
X157497166Y-101525004D01*
X157500000Y-101551362D01*
X157500000Y-101992915D01*
X157494846Y-102028295D01*
X157490728Y-102042126D01*
X157460429Y-102130382D01*
X157455931Y-102157338D01*
X157454198Y-102164829D01*
X157446401Y-102191017D01*
X157434856Y-102283638D01*
X157419500Y-102375665D01*
X157419500Y-102402981D01*
X157419024Y-102410656D01*
X157415643Y-102437779D01*
X157419500Y-102531035D01*
X157419500Y-102624334D01*
X157423996Y-102651279D01*
X157424789Y-102658928D01*
X157425918Y-102686235D01*
X157445069Y-102777567D01*
X157460429Y-102869615D01*
X157469305Y-102895470D01*
X157471345Y-102902883D01*
X157476949Y-102929608D01*
X157476950Y-102929614D01*
X157491518Y-102966947D01*
X157500000Y-103012021D01*
X157500000Y-109948638D01*
X157480315Y-110015677D01*
X157463681Y-110036319D01*
X156036319Y-111463681D01*
X155974996Y-111497166D01*
X155948638Y-111500000D01*
X150051362Y-111500000D01*
X149984323Y-111480315D01*
X149963681Y-111463681D01*
X149036319Y-110536319D01*
X149002834Y-110474996D01*
X149000000Y-110448638D01*
X149000000Y-104051362D01*
X149019685Y-103984323D01*
X149036319Y-103963681D01*
X149463681Y-103536319D01*
X149525004Y-103502834D01*
X149551362Y-103500000D01*
X153000000Y-103500000D01*
X155463681Y-101036319D01*
X155525004Y-101002834D01*
X155551362Y-101000000D01*
X156948638Y-101000000D01*
X157015677Y-101019685D01*
G37*
%TD.AperFunction*%
%TD*%
%TA.AperFunction,Conductor*%
%TO.N,+30-2*%
G36*
X165515677Y-99019685D02*
G01*
X165536319Y-99036319D01*
X166963681Y-100463681D01*
X166997166Y-100525004D01*
X167000000Y-100551362D01*
X167000000Y-102948638D01*
X166980315Y-103015677D01*
X166963681Y-103036319D01*
X165036319Y-104963681D01*
X164974996Y-104997166D01*
X164948638Y-105000000D01*
X164051362Y-105000000D01*
X163984323Y-104980315D01*
X163963681Y-104963681D01*
X163036319Y-104036319D01*
X163002834Y-103974996D01*
X163000000Y-103948638D01*
X163000000Y-100500000D01*
X153500000Y-100500000D01*
X152037200Y-102450400D01*
X151981229Y-102492221D01*
X151938000Y-102500000D01*
X146551362Y-102500000D01*
X146484323Y-102480315D01*
X146463681Y-102463681D01*
X146036319Y-102036319D01*
X146002834Y-101974996D01*
X146000000Y-101948638D01*
X146000000Y-100051362D01*
X146019685Y-99984323D01*
X146036319Y-99963681D01*
X146963681Y-99036319D01*
X147025004Y-99002834D01*
X147051362Y-99000000D01*
X165448638Y-99000000D01*
X165515677Y-99019685D01*
G37*
%TD.AperFunction*%
%TD*%
M02*
