%TF.GenerationSoftware,KiCad,Pcbnew,7.0.9*%
%TF.CreationDate,2024-01-23T23:33:07-05:00*%
%TF.ProjectId,Drive,44726976-652e-46b6-9963-61645f706362,rev?*%
%TF.SameCoordinates,Original*%
%TF.FileFunction,Soldermask,Top*%
%TF.FilePolarity,Negative*%
%FSLAX46Y46*%
G04 Gerber Fmt 4.6, Leading zero omitted, Abs format (unit mm)*
G04 Created by KiCad (PCBNEW 7.0.9) date 2024-01-23 23:33:07*
%MOMM*%
%LPD*%
G01*
G04 APERTURE LIST*
G04 Aperture macros list*
%AMRoundRect*
0 Rectangle with rounded corners*
0 $1 Rounding radius*
0 $2 $3 $4 $5 $6 $7 $8 $9 X,Y pos of 4 corners*
0 Add a 4 corners polygon primitive as box body*
4,1,4,$2,$3,$4,$5,$6,$7,$8,$9,$2,$3,0*
0 Add four circle primitives for the rounded corners*
1,1,$1+$1,$2,$3*
1,1,$1+$1,$4,$5*
1,1,$1+$1,$6,$7*
1,1,$1+$1,$8,$9*
0 Add four rect primitives between the rounded corners*
20,1,$1+$1,$2,$3,$4,$5,0*
20,1,$1+$1,$4,$5,$6,$7,0*
20,1,$1+$1,$6,$7,$8,$9,0*
20,1,$1+$1,$8,$9,$2,$3,0*%
G04 Aperture macros list end*
%ADD10RoundRect,0.250000X-0.312500X-0.625000X0.312500X-0.625000X0.312500X0.625000X-0.312500X0.625000X0*%
%ADD11R,1.700000X1.700000*%
%ADD12O,1.700000X1.700000*%
%ADD13RoundRect,0.112500X0.112500X-0.187500X0.112500X0.187500X-0.112500X0.187500X-0.112500X-0.187500X0*%
%ADD14RoundRect,0.250000X-0.625000X0.312500X-0.625000X-0.312500X0.625000X-0.312500X0.625000X0.312500X0*%
%ADD15C,1.200000*%
%ADD16RoundRect,0.250000X-0.325000X-0.650000X0.325000X-0.650000X0.325000X0.650000X-0.325000X0.650000X0*%
%ADD17RoundRect,0.112500X0.187500X0.112500X-0.187500X0.112500X-0.187500X-0.112500X0.187500X-0.112500X0*%
%ADD18RoundRect,0.250000X0.312500X0.625000X-0.312500X0.625000X-0.312500X-0.625000X0.312500X-0.625000X0*%
%ADD19C,1.400000*%
%ADD20O,1.400000X1.400000*%
%ADD21RoundRect,0.250000X0.650000X-0.325000X0.650000X0.325000X-0.650000X0.325000X-0.650000X-0.325000X0*%
%ADD22RoundRect,0.250000X-0.625000X0.375000X-0.625000X-0.375000X0.625000X-0.375000X0.625000X0.375000X0*%
%ADD23RoundRect,0.250000X-0.650000X0.325000X-0.650000X-0.325000X0.650000X-0.325000X0.650000X0.325000X0*%
%ADD24RoundRect,0.250000X0.625000X-0.312500X0.625000X0.312500X-0.625000X0.312500X-0.625000X-0.312500X0*%
%ADD25C,3.500000*%
%ADD26RoundRect,0.112500X-0.187500X-0.112500X0.187500X-0.112500X0.187500X0.112500X-0.187500X0.112500X0*%
%ADD27RoundRect,0.250000X0.325000X0.650000X-0.325000X0.650000X-0.325000X-0.650000X0.325000X-0.650000X0*%
%ADD28RoundRect,0.112500X-0.112500X0.187500X-0.112500X-0.187500X0.112500X-0.187500X0.112500X0.187500X0*%
%ADD29C,1.524000*%
%ADD30R,1.200000X0.400000*%
G04 APERTURE END LIST*
D10*
%TO.C,R3*%
X117575000Y-61000000D03*
X120500000Y-61000000D03*
%TD*%
D11*
%TO.C,J_Control1*%
X91000000Y-89080000D03*
D12*
X91000000Y-86540000D03*
X91000000Y-84000000D03*
X91000000Y-81460000D03*
X91000000Y-78920000D03*
X91000000Y-76380000D03*
%TD*%
D13*
%TO.C,D7*%
X164462500Y-70100000D03*
X164462500Y-68000000D03*
%TD*%
D10*
%TO.C,R21*%
X157575000Y-86000000D03*
X160500000Y-86000000D03*
%TD*%
D13*
%TO.C,D12*%
X165425000Y-84050000D03*
X165425000Y-81950000D03*
%TD*%
D14*
%TO.C,R14*%
X127000000Y-68000000D03*
X127000000Y-70925000D03*
%TD*%
D15*
%TO.C,C10*%
X114700000Y-99455000D03*
X114700000Y-97955000D03*
%TD*%
D13*
%TO.C,D10*%
X174962500Y-74500000D03*
X174962500Y-72400000D03*
%TD*%
D16*
%TO.C,C6*%
X101000000Y-77000000D03*
X103950000Y-77000000D03*
%TD*%
D11*
%TO.C,U15-5*%
X175025000Y-93000000D03*
D12*
X172485000Y-93000000D03*
X169945000Y-93000000D03*
%TD*%
D10*
%TO.C,R16*%
X117575000Y-64450000D03*
X120500000Y-64450000D03*
%TD*%
D17*
%TO.C,D15*%
X166012500Y-62050000D03*
X163912500Y-62050000D03*
%TD*%
D18*
%TO.C,R15*%
X146425000Y-68500000D03*
X143500000Y-68500000D03*
%TD*%
D19*
%TO.C,R26*%
X153405000Y-77500000D03*
D20*
X151505000Y-77500000D03*
%TD*%
D17*
%TO.C,D14*%
X176512500Y-81500000D03*
X174412500Y-81500000D03*
%TD*%
D21*
%TO.C,C20*%
X160462500Y-61500000D03*
X160462500Y-58550000D03*
%TD*%
D18*
%TO.C,R8*%
X99000000Y-85000000D03*
X96075000Y-85000000D03*
%TD*%
D19*
%TO.C,R27*%
X153000000Y-73000000D03*
D20*
X151100000Y-73000000D03*
%TD*%
D22*
%TO.C,D17*%
X141500000Y-107675000D03*
X141500000Y-110475000D03*
%TD*%
D23*
%TO.C,C23*%
X150500000Y-101500000D03*
X150500000Y-104450000D03*
%TD*%
D24*
%TO.C,R1*%
X141000000Y-64425000D03*
X141000000Y-61500000D03*
%TD*%
D16*
%TO.C,C4*%
X101050000Y-85000000D03*
X104000000Y-85000000D03*
%TD*%
D25*
%TO.C,H3*%
X89500000Y-110500000D03*
%TD*%
D21*
%TO.C,C14*%
X109700000Y-106405000D03*
X109700000Y-103455000D03*
%TD*%
%TO.C,C16*%
X109700000Y-94430000D03*
X109700000Y-91480000D03*
%TD*%
D11*
%TO.C,J_POWER1*%
X164000000Y-102500000D03*
D12*
X161460000Y-102500000D03*
X158920000Y-102500000D03*
X156380000Y-102500000D03*
%TD*%
D14*
%TO.C,R30*%
X127000000Y-107575000D03*
X127000000Y-110500000D03*
%TD*%
%TO.C,R2*%
X115000000Y-61075000D03*
X115000000Y-64000000D03*
%TD*%
D26*
%TO.C,D1*%
X142400000Y-59000000D03*
X144500000Y-59000000D03*
%TD*%
D18*
%TO.C,R11*%
X98875000Y-73000000D03*
X95950000Y-73000000D03*
%TD*%
D27*
%TO.C,C8*%
X113450000Y-77000000D03*
X110500000Y-77000000D03*
%TD*%
D11*
%TO.C,J3.3*%
X91000000Y-70500000D03*
D12*
X91000000Y-67960000D03*
X91000000Y-65420000D03*
%TD*%
D10*
%TO.C,R18*%
X121575000Y-68450000D03*
X124500000Y-68450000D03*
%TD*%
D25*
%TO.C,H1*%
X89500000Y-54500000D03*
%TD*%
D10*
%TO.C,R24*%
X157500000Y-89500000D03*
X160425000Y-89500000D03*
%TD*%
D14*
%TO.C,R29*%
X144000000Y-107575000D03*
X144000000Y-110500000D03*
%TD*%
D21*
%TO.C,C19*%
X158500000Y-82500000D03*
X158500000Y-79550000D03*
%TD*%
D13*
%TO.C,D11*%
X165425000Y-88050000D03*
X165425000Y-85950000D03*
%TD*%
D27*
%TO.C,C12*%
X113450000Y-79500000D03*
X110500000Y-79500000D03*
%TD*%
D11*
%TO.C,J_Current1*%
X126380000Y-57000000D03*
D12*
X128920000Y-57000000D03*
X131460000Y-57000000D03*
X134000000Y-57000000D03*
X136540000Y-57000000D03*
%TD*%
D13*
%TO.C,D5*%
X118500000Y-73100000D03*
X118500000Y-71000000D03*
%TD*%
D21*
%TO.C,C15*%
X109700000Y-100405000D03*
X109700000Y-97455000D03*
%TD*%
D14*
%TO.C,R5*%
X141000000Y-68000000D03*
X141000000Y-70925000D03*
%TD*%
D21*
%TO.C,C18*%
X170962500Y-71500000D03*
X170962500Y-68550000D03*
%TD*%
D23*
%TO.C,C21*%
X170962500Y-80000000D03*
X170962500Y-82950000D03*
%TD*%
D16*
%TO.C,C7*%
X101000000Y-73000000D03*
X103950000Y-73000000D03*
%TD*%
D18*
%TO.C,R7*%
X98925000Y-89000000D03*
X96000000Y-89000000D03*
%TD*%
D22*
%TO.C,D16*%
X133100000Y-107675000D03*
X133100000Y-110475000D03*
%TD*%
D27*
%TO.C,C17*%
X111500000Y-74500000D03*
X108550000Y-74500000D03*
%TD*%
D18*
%TO.C,R12*%
X146425000Y-64000000D03*
X143500000Y-64000000D03*
%TD*%
%TO.C,R10*%
X98950000Y-77000000D03*
X96025000Y-77000000D03*
%TD*%
D11*
%TO.C,M1*%
X152500000Y-94525000D03*
D12*
X152500000Y-91985000D03*
X152500000Y-89445000D03*
%TD*%
D28*
%TO.C,D4*%
X149500000Y-67000000D03*
X149500000Y-69100000D03*
%TD*%
D10*
%TO.C,R22*%
X157037500Y-64550000D03*
X159962500Y-64550000D03*
%TD*%
D14*
%TO.C,R17*%
X123000000Y-61075000D03*
X123000000Y-64000000D03*
%TD*%
D15*
%TO.C,C9*%
X114700000Y-104955000D03*
X114700000Y-103455000D03*
%TD*%
D23*
%TO.C,C13*%
X160462500Y-71100000D03*
X160462500Y-74050000D03*
%TD*%
D24*
%TO.C,R4*%
X111500000Y-72000000D03*
X111500000Y-69075000D03*
%TD*%
D14*
%TO.C,R28*%
X135600000Y-107575000D03*
X135600000Y-110500000D03*
%TD*%
D15*
%TO.C,C11*%
X114700000Y-93955000D03*
X114700000Y-92455000D03*
%TD*%
D19*
%TO.C,R25*%
X153400000Y-82500000D03*
D20*
X151500000Y-82500000D03*
%TD*%
D23*
%TO.C,C22*%
X160500000Y-92550000D03*
X160500000Y-95500000D03*
%TD*%
D10*
%TO.C,R20*%
X168037500Y-74500000D03*
X170962500Y-74500000D03*
%TD*%
D29*
%TO.C,U1-IGCM04F60GAXKMA1*%
X118700000Y-104455000D03*
X121700000Y-102455000D03*
X118700000Y-99455000D03*
X121700000Y-97855000D03*
X118700000Y-94455000D03*
X121700000Y-92855000D03*
X118700000Y-89455000D03*
X121700000Y-87855000D03*
X118700000Y-86255000D03*
X121700000Y-84655000D03*
X118700000Y-83055000D03*
X121700000Y-81455000D03*
X118700000Y-79855000D03*
X121700000Y-78255000D03*
X118700000Y-76655000D03*
X121700000Y-74655000D03*
X147300000Y-72945000D03*
X147300000Y-77675000D03*
X147300000Y-82405000D03*
X147300000Y-87135000D03*
X147300000Y-91865000D03*
X147300000Y-96595000D03*
X147300000Y-101325000D03*
X147300000Y-106055000D03*
%TD*%
D25*
%TO.C,H2*%
X175500000Y-54500000D03*
%TD*%
D13*
%TO.C,D9*%
X174962500Y-78600000D03*
X174962500Y-76500000D03*
%TD*%
D18*
%TO.C,R9*%
X99000000Y-81000000D03*
X96075000Y-81000000D03*
%TD*%
D13*
%TO.C,D6*%
X118500000Y-69100000D03*
X118500000Y-67000000D03*
%TD*%
D27*
%TO.C,C1*%
X120500000Y-57500000D03*
X117550000Y-57500000D03*
%TD*%
D22*
%TO.C,D18*%
X124500000Y-107700000D03*
X124500000Y-110500000D03*
%TD*%
D25*
%TO.C,H4*%
X175500000Y-110500000D03*
%TD*%
D28*
%TO.C,D3*%
X149500000Y-63400000D03*
X149500000Y-65500000D03*
%TD*%
D13*
%TO.C,D8*%
X164462500Y-66562500D03*
X164462500Y-64462500D03*
%TD*%
D16*
%TO.C,C3*%
X101000000Y-89000000D03*
X103950000Y-89000000D03*
%TD*%
%TO.C,C5*%
X101050000Y-81000000D03*
X104000000Y-81000000D03*
%TD*%
D11*
%TO.C,U30-15*%
X172460000Y-100500000D03*
D12*
X175000000Y-100500000D03*
X177540000Y-100500000D03*
%TD*%
D10*
%TO.C,R19*%
X157037500Y-68050000D03*
X159962500Y-68050000D03*
%TD*%
D24*
%TO.C,R13*%
X127000000Y-64000000D03*
X127000000Y-61075000D03*
%TD*%
D17*
%TO.C,D13*%
X166475000Y-91000000D03*
X164375000Y-91000000D03*
%TD*%
D16*
%TO.C,C2*%
X101125000Y-93000000D03*
X104075000Y-93000000D03*
%TD*%
D30*
%TO.C,U2*%
X130550000Y-64050000D03*
X130550000Y-64700000D03*
X130550000Y-65350000D03*
X130550000Y-66000000D03*
X130550000Y-66650000D03*
X130550000Y-67300000D03*
X130550000Y-67950000D03*
X137450000Y-67950000D03*
X137450000Y-67300000D03*
X137450000Y-66650000D03*
X137450000Y-66000000D03*
X137450000Y-65350000D03*
X137450000Y-64700000D03*
X137450000Y-64050000D03*
%TD*%
D18*
%TO.C,R6*%
X99000000Y-93000000D03*
X96075000Y-93000000D03*
%TD*%
D10*
%TO.C,R23*%
X167962500Y-77500000D03*
X170887500Y-77500000D03*
%TD*%
D26*
%TO.C,D2*%
X146450000Y-59000000D03*
X148550000Y-59000000D03*
%TD*%
M02*
