%TF.GenerationSoftware,KiCad,Pcbnew,8.0.6*%
%TF.CreationDate,2024-12-28T02:56:37-05:00*%
%TF.ProjectId,AC_Driver_V2,41435f44-7269-4766-9572-5f56322e6b69,rev?*%
%TF.SameCoordinates,Original*%
%TF.FileFunction,Drillmap*%
%TF.FilePolarity,Positive*%
%FSLAX45Y45*%
G04 Gerber Fmt 4.5, Leading zero omitted, Abs format (unit mm)*
G04 Created by KiCad (PCBNEW 8.0.6) date 2024-12-28 02:56:37*
%MOMM*%
%LPD*%
G01*
G04 APERTURE LIST*
%ADD10C,0.050000*%
%ADD11C,0.200000*%
%ADD12C,0.100000*%
G04 APERTURE END LIST*
D10*
X4675000Y-8573753D02*
G75*
G02*
X4700000Y-9075000I0J-251247D01*
G01*
X2480000Y-11000000D02*
X2480000Y-9075000D01*
X6940000Y-7550000D02*
G75*
G02*
X6840000Y-7450000I0J100000D01*
G01*
X8840000Y-7450000D02*
G75*
G02*
X8740000Y-7550000I-100000J0D01*
G01*
X8740000Y-4250000D02*
G75*
G02*
X8840000Y-4350000I4289J-95711D01*
G01*
X6840000Y-4350000D02*
G75*
G02*
X6940000Y-4250000I100000J0D01*
G01*
X6840000Y-7450000D02*
X6840000Y-4350000D01*
X8740000Y-7550000D02*
X6940000Y-7550000D01*
X8840000Y-4350000D02*
X8840000Y-7450000D01*
X6940000Y-4250000D02*
X8740000Y-4250000D01*
X15550000Y-11000000D02*
X15550000Y-3500000D01*
X2980000Y-11500000D02*
X15050000Y-11500000D01*
X15050000Y-3000000D02*
X2980000Y-3000000D01*
X2980000Y-11500000D02*
G75*
G02*
X2480000Y-11000000I0J500000D01*
G01*
X15550000Y-11000000D02*
G75*
G02*
X15050000Y-11500000I-500000J0D01*
G01*
X15050000Y-3000000D02*
G75*
G02*
X15550000Y-3500000I0J-500000D01*
G01*
X2480000Y-3500000D02*
G75*
G02*
X2980000Y-3000000I500000J0D01*
G01*
X2480000Y-3500000D02*
X2475000Y-8575000D01*
X4675000Y-8573753D02*
X2475000Y-8575000D01*
X2480000Y-9075000D02*
X4700000Y-9075000D01*
D11*
D12*
X10365000Y-3129500D02*
X10455000Y-3219500D01*
X10455000Y-3129500D02*
X10365000Y-3219500D01*
X10665000Y-3129500D02*
X10755000Y-3219500D01*
X10755000Y-3129500D02*
X10665000Y-3219500D01*
D11*
X2733277Y-11813984D02*
X2733277Y-11613984D01*
X2733277Y-11613984D02*
X2780896Y-11613984D01*
X2780896Y-11613984D02*
X2809467Y-11623508D01*
X2809467Y-11623508D02*
X2828515Y-11642555D01*
X2828515Y-11642555D02*
X2838039Y-11661603D01*
X2838039Y-11661603D02*
X2847562Y-11699698D01*
X2847562Y-11699698D02*
X2847562Y-11728269D01*
X2847562Y-11728269D02*
X2838039Y-11766365D01*
X2838039Y-11766365D02*
X2828515Y-11785412D01*
X2828515Y-11785412D02*
X2809467Y-11804460D01*
X2809467Y-11804460D02*
X2780896Y-11813984D01*
X2780896Y-11813984D02*
X2733277Y-11813984D01*
X2933277Y-11813984D02*
X2933277Y-11680650D01*
X2933277Y-11718746D02*
X2942801Y-11699698D01*
X2942801Y-11699698D02*
X2952324Y-11690174D01*
X2952324Y-11690174D02*
X2971372Y-11680650D01*
X2971372Y-11680650D02*
X2990420Y-11680650D01*
X3057086Y-11813984D02*
X3057086Y-11680650D01*
X3057086Y-11613984D02*
X3047562Y-11623508D01*
X3047562Y-11623508D02*
X3057086Y-11633031D01*
X3057086Y-11633031D02*
X3066610Y-11623508D01*
X3066610Y-11623508D02*
X3057086Y-11613984D01*
X3057086Y-11613984D02*
X3057086Y-11633031D01*
X3180896Y-11813984D02*
X3161848Y-11804460D01*
X3161848Y-11804460D02*
X3152324Y-11785412D01*
X3152324Y-11785412D02*
X3152324Y-11613984D01*
X3285658Y-11813984D02*
X3266610Y-11804460D01*
X3266610Y-11804460D02*
X3257086Y-11785412D01*
X3257086Y-11785412D02*
X3257086Y-11613984D01*
X3514229Y-11813984D02*
X3514229Y-11613984D01*
X3514229Y-11613984D02*
X3580896Y-11756841D01*
X3580896Y-11756841D02*
X3647562Y-11613984D01*
X3647562Y-11613984D02*
X3647562Y-11813984D01*
X3828515Y-11813984D02*
X3828515Y-11709222D01*
X3828515Y-11709222D02*
X3818991Y-11690174D01*
X3818991Y-11690174D02*
X3799943Y-11680650D01*
X3799943Y-11680650D02*
X3761848Y-11680650D01*
X3761848Y-11680650D02*
X3742801Y-11690174D01*
X3828515Y-11804460D02*
X3809467Y-11813984D01*
X3809467Y-11813984D02*
X3761848Y-11813984D01*
X3761848Y-11813984D02*
X3742801Y-11804460D01*
X3742801Y-11804460D02*
X3733277Y-11785412D01*
X3733277Y-11785412D02*
X3733277Y-11766365D01*
X3733277Y-11766365D02*
X3742801Y-11747317D01*
X3742801Y-11747317D02*
X3761848Y-11737793D01*
X3761848Y-11737793D02*
X3809467Y-11737793D01*
X3809467Y-11737793D02*
X3828515Y-11728269D01*
X3923753Y-11680650D02*
X3923753Y-11880650D01*
X3923753Y-11690174D02*
X3942801Y-11680650D01*
X3942801Y-11680650D02*
X3980896Y-11680650D01*
X3980896Y-11680650D02*
X3999943Y-11690174D01*
X3999943Y-11690174D02*
X4009467Y-11699698D01*
X4009467Y-11699698D02*
X4018991Y-11718746D01*
X4018991Y-11718746D02*
X4018991Y-11775888D01*
X4018991Y-11775888D02*
X4009467Y-11794936D01*
X4009467Y-11794936D02*
X3999943Y-11804460D01*
X3999943Y-11804460D02*
X3980896Y-11813984D01*
X3980896Y-11813984D02*
X3942801Y-11813984D01*
X3942801Y-11813984D02*
X3923753Y-11804460D01*
X4104705Y-11794936D02*
X4114229Y-11804460D01*
X4114229Y-11804460D02*
X4104705Y-11813984D01*
X4104705Y-11813984D02*
X4095182Y-11804460D01*
X4095182Y-11804460D02*
X4104705Y-11794936D01*
X4104705Y-11794936D02*
X4104705Y-11813984D01*
X4104705Y-11690174D02*
X4114229Y-11699698D01*
X4114229Y-11699698D02*
X4104705Y-11709222D01*
X4104705Y-11709222D02*
X4095182Y-11699698D01*
X4095182Y-11699698D02*
X4104705Y-11690174D01*
X4104705Y-11690174D02*
X4104705Y-11709222D01*
D12*
X2382500Y-12097500D02*
X2472500Y-12187500D01*
X2472500Y-12097500D02*
X2382500Y-12187500D01*
D11*
X2771372Y-12033984D02*
X2790420Y-12033984D01*
X2790420Y-12033984D02*
X2809467Y-12043508D01*
X2809467Y-12043508D02*
X2818991Y-12053031D01*
X2818991Y-12053031D02*
X2828515Y-12072079D01*
X2828515Y-12072079D02*
X2838039Y-12110174D01*
X2838039Y-12110174D02*
X2838039Y-12157793D01*
X2838039Y-12157793D02*
X2828515Y-12195888D01*
X2828515Y-12195888D02*
X2818991Y-12214936D01*
X2818991Y-12214936D02*
X2809467Y-12224460D01*
X2809467Y-12224460D02*
X2790420Y-12233984D01*
X2790420Y-12233984D02*
X2771372Y-12233984D01*
X2771372Y-12233984D02*
X2752324Y-12224460D01*
X2752324Y-12224460D02*
X2742801Y-12214936D01*
X2742801Y-12214936D02*
X2733277Y-12195888D01*
X2733277Y-12195888D02*
X2723753Y-12157793D01*
X2723753Y-12157793D02*
X2723753Y-12110174D01*
X2723753Y-12110174D02*
X2733277Y-12072079D01*
X2733277Y-12072079D02*
X2742801Y-12053031D01*
X2742801Y-12053031D02*
X2752324Y-12043508D01*
X2752324Y-12043508D02*
X2771372Y-12033984D01*
X2923753Y-12214936D02*
X2933277Y-12224460D01*
X2933277Y-12224460D02*
X2923753Y-12233984D01*
X2923753Y-12233984D02*
X2914229Y-12224460D01*
X2914229Y-12224460D02*
X2923753Y-12214936D01*
X2923753Y-12214936D02*
X2923753Y-12233984D01*
X3028515Y-12233984D02*
X3066610Y-12233984D01*
X3066610Y-12233984D02*
X3085658Y-12224460D01*
X3085658Y-12224460D02*
X3095182Y-12214936D01*
X3095182Y-12214936D02*
X3114229Y-12186365D01*
X3114229Y-12186365D02*
X3123753Y-12148269D01*
X3123753Y-12148269D02*
X3123753Y-12072079D01*
X3123753Y-12072079D02*
X3114229Y-12053031D01*
X3114229Y-12053031D02*
X3104705Y-12043508D01*
X3104705Y-12043508D02*
X3085658Y-12033984D01*
X3085658Y-12033984D02*
X3047562Y-12033984D01*
X3047562Y-12033984D02*
X3028515Y-12043508D01*
X3028515Y-12043508D02*
X3018991Y-12053031D01*
X3018991Y-12053031D02*
X3009467Y-12072079D01*
X3009467Y-12072079D02*
X3009467Y-12119698D01*
X3009467Y-12119698D02*
X3018991Y-12138746D01*
X3018991Y-12138746D02*
X3028515Y-12148269D01*
X3028515Y-12148269D02*
X3047562Y-12157793D01*
X3047562Y-12157793D02*
X3085658Y-12157793D01*
X3085658Y-12157793D02*
X3104705Y-12148269D01*
X3104705Y-12148269D02*
X3114229Y-12138746D01*
X3114229Y-12138746D02*
X3123753Y-12119698D01*
X3247562Y-12033984D02*
X3266610Y-12033984D01*
X3266610Y-12033984D02*
X3285658Y-12043508D01*
X3285658Y-12043508D02*
X3295182Y-12053031D01*
X3295182Y-12053031D02*
X3304705Y-12072079D01*
X3304705Y-12072079D02*
X3314229Y-12110174D01*
X3314229Y-12110174D02*
X3314229Y-12157793D01*
X3314229Y-12157793D02*
X3304705Y-12195888D01*
X3304705Y-12195888D02*
X3295182Y-12214936D01*
X3295182Y-12214936D02*
X3285658Y-12224460D01*
X3285658Y-12224460D02*
X3266610Y-12233984D01*
X3266610Y-12233984D02*
X3247562Y-12233984D01*
X3247562Y-12233984D02*
X3228515Y-12224460D01*
X3228515Y-12224460D02*
X3218991Y-12214936D01*
X3218991Y-12214936D02*
X3209467Y-12195888D01*
X3209467Y-12195888D02*
X3199943Y-12157793D01*
X3199943Y-12157793D02*
X3199943Y-12110174D01*
X3199943Y-12110174D02*
X3209467Y-12072079D01*
X3209467Y-12072079D02*
X3218991Y-12053031D01*
X3218991Y-12053031D02*
X3228515Y-12043508D01*
X3228515Y-12043508D02*
X3247562Y-12033984D01*
X3438039Y-12033984D02*
X3457086Y-12033984D01*
X3457086Y-12033984D02*
X3476134Y-12043508D01*
X3476134Y-12043508D02*
X3485658Y-12053031D01*
X3485658Y-12053031D02*
X3495182Y-12072079D01*
X3495182Y-12072079D02*
X3504705Y-12110174D01*
X3504705Y-12110174D02*
X3504705Y-12157793D01*
X3504705Y-12157793D02*
X3495182Y-12195888D01*
X3495182Y-12195888D02*
X3485658Y-12214936D01*
X3485658Y-12214936D02*
X3476134Y-12224460D01*
X3476134Y-12224460D02*
X3457086Y-12233984D01*
X3457086Y-12233984D02*
X3438039Y-12233984D01*
X3438039Y-12233984D02*
X3418991Y-12224460D01*
X3418991Y-12224460D02*
X3409467Y-12214936D01*
X3409467Y-12214936D02*
X3399943Y-12195888D01*
X3399943Y-12195888D02*
X3390420Y-12157793D01*
X3390420Y-12157793D02*
X3390420Y-12110174D01*
X3390420Y-12110174D02*
X3399943Y-12072079D01*
X3399943Y-12072079D02*
X3409467Y-12053031D01*
X3409467Y-12053031D02*
X3418991Y-12043508D01*
X3418991Y-12043508D02*
X3438039Y-12033984D01*
X3590420Y-12233984D02*
X3590420Y-12100650D01*
X3590420Y-12119698D02*
X3599943Y-12110174D01*
X3599943Y-12110174D02*
X3618991Y-12100650D01*
X3618991Y-12100650D02*
X3647563Y-12100650D01*
X3647563Y-12100650D02*
X3666610Y-12110174D01*
X3666610Y-12110174D02*
X3676134Y-12129222D01*
X3676134Y-12129222D02*
X3676134Y-12233984D01*
X3676134Y-12129222D02*
X3685658Y-12110174D01*
X3685658Y-12110174D02*
X3704705Y-12100650D01*
X3704705Y-12100650D02*
X3733277Y-12100650D01*
X3733277Y-12100650D02*
X3752324Y-12110174D01*
X3752324Y-12110174D02*
X3761848Y-12129222D01*
X3761848Y-12129222D02*
X3761848Y-12233984D01*
X3857086Y-12233984D02*
X3857086Y-12100650D01*
X3857086Y-12119698D02*
X3866610Y-12110174D01*
X3866610Y-12110174D02*
X3885658Y-12100650D01*
X3885658Y-12100650D02*
X3914229Y-12100650D01*
X3914229Y-12100650D02*
X3933277Y-12110174D01*
X3933277Y-12110174D02*
X3942801Y-12129222D01*
X3942801Y-12129222D02*
X3942801Y-12233984D01*
X3942801Y-12129222D02*
X3952324Y-12110174D01*
X3952324Y-12110174D02*
X3971372Y-12100650D01*
X3971372Y-12100650D02*
X3999943Y-12100650D01*
X3999943Y-12100650D02*
X4018991Y-12110174D01*
X4018991Y-12110174D02*
X4028515Y-12129222D01*
X4028515Y-12129222D02*
X4028515Y-12233984D01*
X4418991Y-12024460D02*
X4247563Y-12281603D01*
X4676134Y-12033984D02*
X4695182Y-12033984D01*
X4695182Y-12033984D02*
X4714229Y-12043508D01*
X4714229Y-12043508D02*
X4723753Y-12053031D01*
X4723753Y-12053031D02*
X4733277Y-12072079D01*
X4733277Y-12072079D02*
X4742801Y-12110174D01*
X4742801Y-12110174D02*
X4742801Y-12157793D01*
X4742801Y-12157793D02*
X4733277Y-12195888D01*
X4733277Y-12195888D02*
X4723753Y-12214936D01*
X4723753Y-12214936D02*
X4714229Y-12224460D01*
X4714229Y-12224460D02*
X4695182Y-12233984D01*
X4695182Y-12233984D02*
X4676134Y-12233984D01*
X4676134Y-12233984D02*
X4657087Y-12224460D01*
X4657087Y-12224460D02*
X4647563Y-12214936D01*
X4647563Y-12214936D02*
X4638039Y-12195888D01*
X4638039Y-12195888D02*
X4628515Y-12157793D01*
X4628515Y-12157793D02*
X4628515Y-12110174D01*
X4628515Y-12110174D02*
X4638039Y-12072079D01*
X4638039Y-12072079D02*
X4647563Y-12053031D01*
X4647563Y-12053031D02*
X4657087Y-12043508D01*
X4657087Y-12043508D02*
X4676134Y-12033984D01*
X4828515Y-12214936D02*
X4838039Y-12224460D01*
X4838039Y-12224460D02*
X4828515Y-12233984D01*
X4828515Y-12233984D02*
X4818991Y-12224460D01*
X4818991Y-12224460D02*
X4828515Y-12214936D01*
X4828515Y-12214936D02*
X4828515Y-12233984D01*
X4961848Y-12033984D02*
X4980896Y-12033984D01*
X4980896Y-12033984D02*
X4999944Y-12043508D01*
X4999944Y-12043508D02*
X5009468Y-12053031D01*
X5009468Y-12053031D02*
X5018991Y-12072079D01*
X5018991Y-12072079D02*
X5028515Y-12110174D01*
X5028515Y-12110174D02*
X5028515Y-12157793D01*
X5028515Y-12157793D02*
X5018991Y-12195888D01*
X5018991Y-12195888D02*
X5009468Y-12214936D01*
X5009468Y-12214936D02*
X4999944Y-12224460D01*
X4999944Y-12224460D02*
X4980896Y-12233984D01*
X4980896Y-12233984D02*
X4961848Y-12233984D01*
X4961848Y-12233984D02*
X4942801Y-12224460D01*
X4942801Y-12224460D02*
X4933277Y-12214936D01*
X4933277Y-12214936D02*
X4923753Y-12195888D01*
X4923753Y-12195888D02*
X4914229Y-12157793D01*
X4914229Y-12157793D02*
X4914229Y-12110174D01*
X4914229Y-12110174D02*
X4923753Y-12072079D01*
X4923753Y-12072079D02*
X4933277Y-12053031D01*
X4933277Y-12053031D02*
X4942801Y-12043508D01*
X4942801Y-12043508D02*
X4961848Y-12033984D01*
X5095182Y-12033984D02*
X5218991Y-12033984D01*
X5218991Y-12033984D02*
X5152325Y-12110174D01*
X5152325Y-12110174D02*
X5180896Y-12110174D01*
X5180896Y-12110174D02*
X5199944Y-12119698D01*
X5199944Y-12119698D02*
X5209468Y-12129222D01*
X5209468Y-12129222D02*
X5218991Y-12148269D01*
X5218991Y-12148269D02*
X5218991Y-12195888D01*
X5218991Y-12195888D02*
X5209468Y-12214936D01*
X5209468Y-12214936D02*
X5199944Y-12224460D01*
X5199944Y-12224460D02*
X5180896Y-12233984D01*
X5180896Y-12233984D02*
X5123753Y-12233984D01*
X5123753Y-12233984D02*
X5104706Y-12224460D01*
X5104706Y-12224460D02*
X5095182Y-12214936D01*
X5399944Y-12033984D02*
X5304706Y-12033984D01*
X5304706Y-12033984D02*
X5295182Y-12129222D01*
X5295182Y-12129222D02*
X5304706Y-12119698D01*
X5304706Y-12119698D02*
X5323753Y-12110174D01*
X5323753Y-12110174D02*
X5371372Y-12110174D01*
X5371372Y-12110174D02*
X5390420Y-12119698D01*
X5390420Y-12119698D02*
X5399944Y-12129222D01*
X5399944Y-12129222D02*
X5409468Y-12148269D01*
X5409468Y-12148269D02*
X5409468Y-12195888D01*
X5409468Y-12195888D02*
X5399944Y-12214936D01*
X5399944Y-12214936D02*
X5390420Y-12224460D01*
X5390420Y-12224460D02*
X5371372Y-12233984D01*
X5371372Y-12233984D02*
X5323753Y-12233984D01*
X5323753Y-12233984D02*
X5304706Y-12224460D01*
X5304706Y-12224460D02*
X5295182Y-12214936D01*
X5580896Y-12100650D02*
X5580896Y-12233984D01*
X5533277Y-12024460D02*
X5485658Y-12167317D01*
X5485658Y-12167317D02*
X5609467Y-12167317D01*
X5676134Y-12033984D02*
X5676134Y-12072079D01*
X5752325Y-12033984D02*
X5752325Y-12072079D01*
X6047563Y-12310174D02*
X6038039Y-12300650D01*
X6038039Y-12300650D02*
X6018991Y-12272079D01*
X6018991Y-12272079D02*
X6009468Y-12253031D01*
X6009468Y-12253031D02*
X5999944Y-12224460D01*
X5999944Y-12224460D02*
X5990420Y-12176841D01*
X5990420Y-12176841D02*
X5990420Y-12138746D01*
X5990420Y-12138746D02*
X5999944Y-12091127D01*
X5999944Y-12091127D02*
X6009468Y-12062555D01*
X6009468Y-12062555D02*
X6018991Y-12043508D01*
X6018991Y-12043508D02*
X6038039Y-12014936D01*
X6038039Y-12014936D02*
X6047563Y-12005412D01*
X6114229Y-12053031D02*
X6123753Y-12043508D01*
X6123753Y-12043508D02*
X6142801Y-12033984D01*
X6142801Y-12033984D02*
X6190420Y-12033984D01*
X6190420Y-12033984D02*
X6209468Y-12043508D01*
X6209468Y-12043508D02*
X6218991Y-12053031D01*
X6218991Y-12053031D02*
X6228515Y-12072079D01*
X6228515Y-12072079D02*
X6228515Y-12091127D01*
X6228515Y-12091127D02*
X6218991Y-12119698D01*
X6218991Y-12119698D02*
X6104706Y-12233984D01*
X6104706Y-12233984D02*
X6228515Y-12233984D01*
X6466610Y-12233984D02*
X6466610Y-12033984D01*
X6552325Y-12233984D02*
X6552325Y-12129222D01*
X6552325Y-12129222D02*
X6542801Y-12110174D01*
X6542801Y-12110174D02*
X6523753Y-12100650D01*
X6523753Y-12100650D02*
X6495182Y-12100650D01*
X6495182Y-12100650D02*
X6476134Y-12110174D01*
X6476134Y-12110174D02*
X6466610Y-12119698D01*
X6676134Y-12233984D02*
X6657087Y-12224460D01*
X6657087Y-12224460D02*
X6647563Y-12214936D01*
X6647563Y-12214936D02*
X6638039Y-12195888D01*
X6638039Y-12195888D02*
X6638039Y-12138746D01*
X6638039Y-12138746D02*
X6647563Y-12119698D01*
X6647563Y-12119698D02*
X6657087Y-12110174D01*
X6657087Y-12110174D02*
X6676134Y-12100650D01*
X6676134Y-12100650D02*
X6704706Y-12100650D01*
X6704706Y-12100650D02*
X6723753Y-12110174D01*
X6723753Y-12110174D02*
X6733277Y-12119698D01*
X6733277Y-12119698D02*
X6742801Y-12138746D01*
X6742801Y-12138746D02*
X6742801Y-12195888D01*
X6742801Y-12195888D02*
X6733277Y-12214936D01*
X6733277Y-12214936D02*
X6723753Y-12224460D01*
X6723753Y-12224460D02*
X6704706Y-12233984D01*
X6704706Y-12233984D02*
X6676134Y-12233984D01*
X6857087Y-12233984D02*
X6838039Y-12224460D01*
X6838039Y-12224460D02*
X6828515Y-12205412D01*
X6828515Y-12205412D02*
X6828515Y-12033984D01*
X7009468Y-12224460D02*
X6990420Y-12233984D01*
X6990420Y-12233984D02*
X6952325Y-12233984D01*
X6952325Y-12233984D02*
X6933277Y-12224460D01*
X6933277Y-12224460D02*
X6923753Y-12205412D01*
X6923753Y-12205412D02*
X6923753Y-12129222D01*
X6923753Y-12129222D02*
X6933277Y-12110174D01*
X6933277Y-12110174D02*
X6952325Y-12100650D01*
X6952325Y-12100650D02*
X6990420Y-12100650D01*
X6990420Y-12100650D02*
X7009468Y-12110174D01*
X7009468Y-12110174D02*
X7018991Y-12129222D01*
X7018991Y-12129222D02*
X7018991Y-12148269D01*
X7018991Y-12148269D02*
X6923753Y-12167317D01*
X7095182Y-12224460D02*
X7114230Y-12233984D01*
X7114230Y-12233984D02*
X7152325Y-12233984D01*
X7152325Y-12233984D02*
X7171372Y-12224460D01*
X7171372Y-12224460D02*
X7180896Y-12205412D01*
X7180896Y-12205412D02*
X7180896Y-12195888D01*
X7180896Y-12195888D02*
X7171372Y-12176841D01*
X7171372Y-12176841D02*
X7152325Y-12167317D01*
X7152325Y-12167317D02*
X7123753Y-12167317D01*
X7123753Y-12167317D02*
X7104706Y-12157793D01*
X7104706Y-12157793D02*
X7095182Y-12138746D01*
X7095182Y-12138746D02*
X7095182Y-12129222D01*
X7095182Y-12129222D02*
X7104706Y-12110174D01*
X7104706Y-12110174D02*
X7123753Y-12100650D01*
X7123753Y-12100650D02*
X7152325Y-12100650D01*
X7152325Y-12100650D02*
X7171372Y-12110174D01*
X7247563Y-12310174D02*
X7257087Y-12300650D01*
X7257087Y-12300650D02*
X7276134Y-12272079D01*
X7276134Y-12272079D02*
X7285658Y-12253031D01*
X7285658Y-12253031D02*
X7295182Y-12224460D01*
X7295182Y-12224460D02*
X7304706Y-12176841D01*
X7304706Y-12176841D02*
X7304706Y-12138746D01*
X7304706Y-12138746D02*
X7295182Y-12091127D01*
X7295182Y-12091127D02*
X7285658Y-12062555D01*
X7285658Y-12062555D02*
X7276134Y-12043508D01*
X7276134Y-12043508D02*
X7257087Y-12014936D01*
X7257087Y-12014936D02*
X7247563Y-12005412D01*
X7609468Y-12310174D02*
X7599944Y-12300650D01*
X7599944Y-12300650D02*
X7580896Y-12272079D01*
X7580896Y-12272079D02*
X7571372Y-12253031D01*
X7571372Y-12253031D02*
X7561849Y-12224460D01*
X7561849Y-12224460D02*
X7552325Y-12176841D01*
X7552325Y-12176841D02*
X7552325Y-12138746D01*
X7552325Y-12138746D02*
X7561849Y-12091127D01*
X7561849Y-12091127D02*
X7571372Y-12062555D01*
X7571372Y-12062555D02*
X7580896Y-12043508D01*
X7580896Y-12043508D02*
X7599944Y-12014936D01*
X7599944Y-12014936D02*
X7609468Y-12005412D01*
X7685658Y-12100650D02*
X7685658Y-12233984D01*
X7685658Y-12119698D02*
X7695182Y-12110174D01*
X7695182Y-12110174D02*
X7714230Y-12100650D01*
X7714230Y-12100650D02*
X7742801Y-12100650D01*
X7742801Y-12100650D02*
X7761849Y-12110174D01*
X7761849Y-12110174D02*
X7771372Y-12129222D01*
X7771372Y-12129222D02*
X7771372Y-12233984D01*
X7895182Y-12233984D02*
X7876134Y-12224460D01*
X7876134Y-12224460D02*
X7866611Y-12214936D01*
X7866611Y-12214936D02*
X7857087Y-12195888D01*
X7857087Y-12195888D02*
X7857087Y-12138746D01*
X7857087Y-12138746D02*
X7866611Y-12119698D01*
X7866611Y-12119698D02*
X7876134Y-12110174D01*
X7876134Y-12110174D02*
X7895182Y-12100650D01*
X7895182Y-12100650D02*
X7923753Y-12100650D01*
X7923753Y-12100650D02*
X7942801Y-12110174D01*
X7942801Y-12110174D02*
X7952325Y-12119698D01*
X7952325Y-12119698D02*
X7961849Y-12138746D01*
X7961849Y-12138746D02*
X7961849Y-12195888D01*
X7961849Y-12195888D02*
X7952325Y-12214936D01*
X7952325Y-12214936D02*
X7942801Y-12224460D01*
X7942801Y-12224460D02*
X7923753Y-12233984D01*
X7923753Y-12233984D02*
X7895182Y-12233984D01*
X8018992Y-12100650D02*
X8095182Y-12100650D01*
X8047563Y-12033984D02*
X8047563Y-12205412D01*
X8047563Y-12205412D02*
X8057087Y-12224460D01*
X8057087Y-12224460D02*
X8076134Y-12233984D01*
X8076134Y-12233984D02*
X8095182Y-12233984D01*
X8314230Y-12100650D02*
X8314230Y-12300650D01*
X8314230Y-12110174D02*
X8333277Y-12100650D01*
X8333277Y-12100650D02*
X8371373Y-12100650D01*
X8371373Y-12100650D02*
X8390420Y-12110174D01*
X8390420Y-12110174D02*
X8399944Y-12119698D01*
X8399944Y-12119698D02*
X8409468Y-12138746D01*
X8409468Y-12138746D02*
X8409468Y-12195888D01*
X8409468Y-12195888D02*
X8399944Y-12214936D01*
X8399944Y-12214936D02*
X8390420Y-12224460D01*
X8390420Y-12224460D02*
X8371373Y-12233984D01*
X8371373Y-12233984D02*
X8333277Y-12233984D01*
X8333277Y-12233984D02*
X8314230Y-12224460D01*
X8523754Y-12233984D02*
X8504706Y-12224460D01*
X8504706Y-12224460D02*
X8495182Y-12205412D01*
X8495182Y-12205412D02*
X8495182Y-12033984D01*
X8685658Y-12233984D02*
X8685658Y-12129222D01*
X8685658Y-12129222D02*
X8676135Y-12110174D01*
X8676135Y-12110174D02*
X8657087Y-12100650D01*
X8657087Y-12100650D02*
X8618992Y-12100650D01*
X8618992Y-12100650D02*
X8599944Y-12110174D01*
X8685658Y-12224460D02*
X8666611Y-12233984D01*
X8666611Y-12233984D02*
X8618992Y-12233984D01*
X8618992Y-12233984D02*
X8599944Y-12224460D01*
X8599944Y-12224460D02*
X8590420Y-12205412D01*
X8590420Y-12205412D02*
X8590420Y-12186365D01*
X8590420Y-12186365D02*
X8599944Y-12167317D01*
X8599944Y-12167317D02*
X8618992Y-12157793D01*
X8618992Y-12157793D02*
X8666611Y-12157793D01*
X8666611Y-12157793D02*
X8685658Y-12148269D01*
X8752325Y-12100650D02*
X8828515Y-12100650D01*
X8780896Y-12033984D02*
X8780896Y-12205412D01*
X8780896Y-12205412D02*
X8790420Y-12224460D01*
X8790420Y-12224460D02*
X8809468Y-12233984D01*
X8809468Y-12233984D02*
X8828515Y-12233984D01*
X8971373Y-12224460D02*
X8952325Y-12233984D01*
X8952325Y-12233984D02*
X8914230Y-12233984D01*
X8914230Y-12233984D02*
X8895182Y-12224460D01*
X8895182Y-12224460D02*
X8885658Y-12205412D01*
X8885658Y-12205412D02*
X8885658Y-12129222D01*
X8885658Y-12129222D02*
X8895182Y-12110174D01*
X8895182Y-12110174D02*
X8914230Y-12100650D01*
X8914230Y-12100650D02*
X8952325Y-12100650D01*
X8952325Y-12100650D02*
X8971373Y-12110174D01*
X8971373Y-12110174D02*
X8980896Y-12129222D01*
X8980896Y-12129222D02*
X8980896Y-12148269D01*
X8980896Y-12148269D02*
X8885658Y-12167317D01*
X9152325Y-12233984D02*
X9152325Y-12033984D01*
X9152325Y-12224460D02*
X9133277Y-12233984D01*
X9133277Y-12233984D02*
X9095182Y-12233984D01*
X9095182Y-12233984D02*
X9076135Y-12224460D01*
X9076135Y-12224460D02*
X9066611Y-12214936D01*
X9066611Y-12214936D02*
X9057087Y-12195888D01*
X9057087Y-12195888D02*
X9057087Y-12138746D01*
X9057087Y-12138746D02*
X9066611Y-12119698D01*
X9066611Y-12119698D02*
X9076135Y-12110174D01*
X9076135Y-12110174D02*
X9095182Y-12100650D01*
X9095182Y-12100650D02*
X9133277Y-12100650D01*
X9133277Y-12100650D02*
X9152325Y-12110174D01*
X9228516Y-12310174D02*
X9238039Y-12300650D01*
X9238039Y-12300650D02*
X9257087Y-12272079D01*
X9257087Y-12272079D02*
X9266611Y-12253031D01*
X9266611Y-12253031D02*
X9276135Y-12224460D01*
X9276135Y-12224460D02*
X9285658Y-12176841D01*
X9285658Y-12176841D02*
X9285658Y-12138746D01*
X9285658Y-12138746D02*
X9276135Y-12091127D01*
X9276135Y-12091127D02*
X9266611Y-12062555D01*
X9266611Y-12062555D02*
X9257087Y-12043508D01*
X9257087Y-12043508D02*
X9238039Y-12014936D01*
X9238039Y-12014936D02*
X9228516Y-12005412D01*
M02*
