%TF.GenerationSoftware,KiCad,Pcbnew,8.0.6*%
%TF.CreationDate,2024-12-28T02:56:51-05:00*%
%TF.ProjectId,AC_Driver_V2,41435f44-7269-4766-9572-5f56322e6b69,rev?*%
%TF.SameCoordinates,Original*%
%TF.FileFunction,Paste,Bot*%
%TF.FilePolarity,Positive*%
%FSLAX46Y46*%
G04 Gerber Fmt 4.6, Leading zero omitted, Abs format (unit mm)*
G04 Created by KiCad (PCBNEW 8.0.6) date 2024-12-28 02:56:51*
%MOMM*%
%LPD*%
G01*
G04 APERTURE LIST*
G04 Aperture macros list*
%AMRoundRect*
0 Rectangle with rounded corners*
0 $1 Rounding radius*
0 $2 $3 $4 $5 $6 $7 $8 $9 X,Y pos of 4 corners*
0 Add a 4 corners polygon primitive as box body*
4,1,4,$2,$3,$4,$5,$6,$7,$8,$9,$2,$3,0*
0 Add four circle primitives for the rounded corners*
1,1,$1+$1,$2,$3*
1,1,$1+$1,$4,$5*
1,1,$1+$1,$6,$7*
1,1,$1+$1,$8,$9*
0 Add four rect primitives between the rounded corners*
20,1,$1+$1,$2,$3,$4,$5,0*
20,1,$1+$1,$4,$5,$6,$7,0*
20,1,$1+$1,$6,$7,$8,$9,0*
20,1,$1+$1,$8,$9,$2,$3,0*%
G04 Aperture macros list end*
%ADD10RoundRect,0.250000X-2.050000X-0.300000X2.050000X-0.300000X2.050000X0.300000X-2.050000X0.300000X0*%
%ADD11RoundRect,0.250000X-2.025000X-2.375000X2.025000X-2.375000X2.025000X2.375000X-2.025000X2.375000X0*%
%ADD12RoundRect,0.150000X0.825000X0.150000X-0.825000X0.150000X-0.825000X-0.150000X0.825000X-0.150000X0*%
%ADD13RoundRect,0.250000X-0.250000X-0.475000X0.250000X-0.475000X0.250000X0.475000X-0.250000X0.475000X0*%
%ADD14RoundRect,0.250000X0.250000X0.475000X-0.250000X0.475000X-0.250000X-0.475000X0.250000X-0.475000X0*%
G04 APERTURE END LIST*
D10*
%TO.C,U1*%
X137525000Y-94865000D03*
X137525000Y-92325000D03*
D11*
X144250000Y-95100000D03*
X144250000Y-89550000D03*
X149100000Y-95100000D03*
X149100000Y-89550000D03*
D10*
X137525000Y-89785000D03*
%TD*%
D12*
%TO.C,U7*%
X43550000Y-55230000D03*
X43550000Y-56500000D03*
X43550000Y-57770000D03*
X43550000Y-59040000D03*
X48500000Y-59040000D03*
X48500000Y-57770000D03*
X48500000Y-56500000D03*
X48500000Y-55230000D03*
%TD*%
%TO.C,U6*%
X43525000Y-68460000D03*
X43525000Y-69730000D03*
X43525000Y-71000000D03*
X43525000Y-72270000D03*
X48475000Y-72270000D03*
X48475000Y-71000000D03*
X48475000Y-69730000D03*
X48475000Y-68460000D03*
%TD*%
%TO.C,U5*%
X43525000Y-61960000D03*
X43525000Y-63230000D03*
X43525000Y-64500000D03*
X43525000Y-65770000D03*
X48475000Y-65770000D03*
X48475000Y-64500000D03*
X48475000Y-63230000D03*
X48475000Y-61960000D03*
%TD*%
D13*
%TO.C,C37*%
X38525000Y-47000000D03*
X40425000Y-47000000D03*
%TD*%
D14*
%TO.C,C36*%
X40450000Y-62000000D03*
X38550000Y-62000000D03*
%TD*%
%TO.C,C35*%
X40400000Y-55000000D03*
X38500000Y-55000000D03*
%TD*%
%TO.C,C17*%
X40500000Y-68500000D03*
X38600000Y-68500000D03*
%TD*%
D12*
%TO.C,U8*%
X48500000Y-47000000D03*
X48500000Y-48270000D03*
X48500000Y-49540000D03*
X48500000Y-50810000D03*
X43550000Y-50810000D03*
X43550000Y-49540000D03*
X43550000Y-48270000D03*
X43550000Y-47000000D03*
%TD*%
M02*
