M48
; DRILL file {KiCad 8.0.6} date 2024-12-28T02:56:35-0500
; FORMAT={-:-/ absolute / metric / decimal}
; #@! TF.CreationDate,2024-12-28T02:56:35-05:00
; #@! TF.GenerationSoftware,Kicad,Pcbnew,8.0.6
; #@! TF.FileFunction,Plated,1,2,PTH
FMAT,2
METRIC
; #@! TA.AperFunction,Plated,PTH,ViaDrill
T1C0.300
; #@! TA.AperFunction,Plated,PTH,ViaDrill
T2C0.500
; #@! TA.AperFunction,Plated,PTH,ComponentDrill
T3C0.500
; #@! TA.AperFunction,Plated,PTH,ComponentDrill
T4C0.600
; #@! TA.AperFunction,Plated,PTH,ComponentDrill
T5C0.650
; #@! TA.AperFunction,Plated,PTH,ComponentDrill
T6C0.700
; #@! TA.AperFunction,Plated,PTH,ComponentDrill
T7C0.750
; #@! TA.AperFunction,Plated,PTH,ComponentDrill
T8C0.762
; #@! TA.AperFunction,Plated,PTH,ComponentDrill
T9C0.800
; #@! TA.AperFunction,Plated,PTH,ViaDrill
T10C1.000
; #@! TA.AperFunction,Plated,PTH,ComponentDrill
T11C1.000
; #@! TA.AperFunction,Plated,PTH,ComponentDrill
T12C1.200
; #@! TA.AperFunction,Plated,PTH,ComponentDrill
T13C1.300
; #@! TA.AperFunction,Plated,PTH,ComponentDrill
T14C1.500
; #@! TA.AperFunction,Plated,PTH,ComponentDrill
T15C1.600
; #@! TA.AperFunction,Plated,PTH,ComponentDrill
T16C2.000
; #@! TA.AperFunction,Plated,PTH,ComponentDrill
T17C3.200
%
G90
G05
T1
X36.5Y-52.0
X36.5Y-53.0
X37.5Y-51.0
X37.5Y-52.0
X37.5Y-53.0
X38.0Y-60.0
X38.0Y-65.0
X38.5Y-51.0
X38.5Y-52.0
X38.5Y-53.0
X39.0Y-72.0
X41.5Y-72.0
X42.0Y-53.0
X42.0Y-65.77
X43.0Y-53.0
X44.0Y-52.0
X44.0Y-53.0
X44.5Y-60.5
X45.0Y-52.0
X45.0Y-53.0
X47.5Y-52.0
X47.5Y-53.0
X48.5Y-52.0
X48.5Y-53.0
X49.5Y-52.0
X49.5Y-53.0
X50.5Y-52.0
X50.5Y-53.0
X53.5Y-106.75
X53.5Y-107.75
X53.5Y-108.75
X53.5Y-109.75
X53.5Y-110.75
X54.5Y-106.75
X54.5Y-107.75
X54.5Y-108.75
X54.5Y-109.75
X54.5Y-110.75
X55.5Y-105.75
X55.5Y-106.75
X55.5Y-107.75
X55.5Y-108.75
X55.5Y-109.75
X55.5Y-110.75
X56.0Y-37.5
X56.0Y-38.5
X56.5Y-72.0
X56.75Y-103.75
X56.75Y-104.75
X56.75Y-105.75
X56.75Y-106.75
X56.75Y-107.75
X56.75Y-108.75
X56.75Y-109.75
X56.75Y-110.75
X57.5Y-37.5
X57.5Y-38.5
X58.0Y-103.75
X58.0Y-104.75
X58.0Y-105.75
X58.0Y-106.75
X58.0Y-107.75
X58.0Y-108.75
X58.0Y-109.75
X58.0Y-110.75
X59.0Y-31.5
X59.0Y-37.5
X59.0Y-38.5
X59.25Y-103.75
X59.25Y-104.75
X59.25Y-105.75
X59.25Y-106.75
X59.25Y-107.75
X59.25Y-108.75
X59.25Y-109.75
X59.25Y-110.75
X60.25Y-103.75
X60.25Y-104.75
X60.25Y-105.75
X60.25Y-106.75
X60.25Y-107.75
X60.25Y-108.75
X60.25Y-109.75
X60.25Y-110.75
X60.5Y-37.5
X60.5Y-38.5
X61.25Y-103.75
X61.25Y-104.75
X61.25Y-105.75
X61.25Y-106.75
X61.25Y-107.75
X61.25Y-108.75
X61.25Y-109.75
X61.25Y-110.75
X62.5Y-103.75
X62.5Y-104.75
X62.5Y-105.75
X62.5Y-106.75
X62.5Y-107.75
X62.5Y-108.75
X62.5Y-109.75
X62.5Y-110.75
X63.5Y-103.75
X63.5Y-104.75
X63.5Y-105.75
X63.5Y-106.75
X63.5Y-107.75
X63.5Y-108.75
X63.5Y-109.75
X63.5Y-110.75
X64.5Y-103.75
X64.5Y-104.75
X64.5Y-105.75
X64.5Y-106.75
X64.5Y-107.75
X64.5Y-108.75
X64.5Y-109.75
X64.5Y-110.75
X65.75Y-103.75
X65.75Y-104.75
X65.75Y-105.75
X65.75Y-106.75
X65.75Y-107.75
X65.75Y-108.75
X65.75Y-109.75
X65.75Y-110.75
X66.0Y-36.0
X67.0Y-103.75
X67.0Y-104.75
X67.0Y-105.75
X67.0Y-106.75
X67.0Y-107.75
X67.0Y-108.75
X67.0Y-109.75
X67.0Y-110.75
X68.0Y-40.0
X68.0Y-41.0
X68.25Y-103.75
X68.25Y-104.75
X68.25Y-105.75
X68.25Y-106.75
X68.25Y-107.75
X68.25Y-108.75
X68.25Y-109.75
X68.25Y-110.75
X69.0Y-39.0
X69.0Y-40.0
X69.0Y-41.0
X69.25Y-103.75
X69.25Y-104.75
X69.25Y-105.75
X69.25Y-106.75
X69.25Y-107.75
X69.25Y-108.75
X69.25Y-109.75
X69.25Y-110.75
X69.75Y-32.25
X70.0Y-33.5
X70.0Y-40.0
X70.0Y-41.0
X70.25Y-103.75
X70.25Y-104.75
X70.25Y-105.75
X70.25Y-106.75
X70.25Y-107.75
X70.25Y-108.75
X70.25Y-109.75
X70.25Y-110.75
X71.0Y-41.0
X71.5Y-103.75
X71.5Y-104.75
X71.5Y-105.75
X71.5Y-106.75
X71.5Y-107.75
X71.5Y-108.75
X71.5Y-109.75
X71.5Y-110.75
X71.75Y-31.0
X72.5Y-103.75
X72.5Y-104.75
X72.5Y-105.75
X72.5Y-106.75
X72.5Y-107.75
X72.5Y-108.75
X72.5Y-109.75
X72.5Y-110.75
X73.75Y-103.75
X73.75Y-104.75
X73.75Y-105.75
X73.75Y-106.75
X73.75Y-107.75
X73.75Y-108.75
X73.75Y-109.75
X73.75Y-110.75
X75.0Y-96.5
X75.0Y-97.5
X75.0Y-98.5
X75.0Y-99.5
X75.0Y-100.5
X75.0Y-101.5
X75.0Y-102.5
X75.0Y-103.75
X75.0Y-104.75
X75.0Y-105.75
X75.0Y-106.75
X75.0Y-107.75
X75.0Y-108.75
X75.0Y-109.75
X75.0Y-110.75
X76.0Y-96.5
X76.0Y-97.5
X76.0Y-98.5
X76.0Y-99.5
X76.0Y-100.5
X76.0Y-101.5
X76.0Y-102.5
X76.25Y-103.75
X76.25Y-104.75
X76.25Y-105.75
X76.25Y-106.75
X76.25Y-107.75
X76.25Y-108.75
X76.25Y-109.75
X76.25Y-110.75
X77.0Y-35.0
X77.0Y-38.0
X77.25Y-96.5
X77.25Y-97.5
X77.25Y-98.5
X77.25Y-99.5
X77.25Y-100.5
X77.25Y-101.5
X77.25Y-102.5
X77.5Y-103.75
X77.5Y-104.75
X77.5Y-105.75
X77.5Y-106.75
X77.5Y-107.75
X77.5Y-108.75
X77.5Y-109.75
X77.5Y-110.75
X78.5Y-96.5
X78.5Y-97.5
X78.5Y-98.5
X78.5Y-99.5
X78.5Y-100.5
X78.5Y-101.5
X78.5Y-102.5
X78.5Y-103.75
X78.5Y-104.75
X78.5Y-105.75
X78.5Y-106.75
X78.5Y-107.75
X78.5Y-108.75
X78.5Y-109.75
X78.5Y-110.75
X79.5Y-39.5
X79.5Y-103.75
X79.5Y-104.75
X79.5Y-105.75
X79.5Y-106.75
X79.5Y-107.75
X79.5Y-108.75
X79.5Y-109.75
X79.5Y-110.75
X79.75Y-96.5
X79.75Y-97.5
X79.75Y-98.5
X79.75Y-99.5
X79.75Y-100.5
X79.75Y-101.5
X79.75Y-102.5
X80.75Y-96.5
X80.75Y-97.5
X80.75Y-98.5
X80.75Y-99.5
X80.75Y-100.5
X80.75Y-101.5
X80.75Y-102.5
X81.75Y-96.5
X81.75Y-97.5
X81.75Y-98.5
X81.75Y-99.5
X81.75Y-100.5
X81.75Y-101.5
X81.75Y-102.5
X83.0Y-96.5
X83.0Y-97.5
X83.0Y-98.5
X83.0Y-99.5
X83.0Y-100.5
X83.0Y-101.5
X83.0Y-102.5
X83.5Y-39.5
X84.25Y-96.5
X84.25Y-97.5
X84.25Y-98.5
X84.25Y-99.5
X84.25Y-100.5
X84.25Y-101.5
X84.25Y-102.5
X85.25Y-41.0
X85.25Y-96.5
X85.25Y-97.5
X85.25Y-98.5
X85.25Y-99.5
X85.25Y-100.5
X85.25Y-101.5
X85.25Y-102.5
X85.625Y-33.875
X86.5Y-96.5
X86.5Y-97.5
X86.5Y-98.5
X86.5Y-99.5
X86.5Y-100.5
X86.5Y-101.5
X86.5Y-102.5
X86.75Y-40.25
X87.7Y-103.7
X87.7Y-104.7
X87.7Y-105.7
X87.7Y-106.7
X87.7Y-107.7
X87.7Y-108.7
X87.7Y-109.7
X87.7Y-110.7
X87.75Y-96.5
X87.75Y-97.5
X87.75Y-98.5
X87.75Y-99.5
X87.75Y-100.5
X87.75Y-101.5
X87.75Y-102.5
X88.25Y-39.0
X88.7Y-103.7
X88.7Y-104.7
X88.7Y-105.7
X88.7Y-106.7
X88.7Y-107.7
X88.7Y-108.7
X88.7Y-109.7
X88.7Y-110.7
X89.0Y-96.5
X89.0Y-97.5
X89.0Y-98.5
X89.0Y-99.5
X89.0Y-100.5
X89.0Y-101.5
X89.0Y-102.5
X89.7Y-103.7
X89.7Y-104.7
X89.7Y-105.7
X89.7Y-106.7
X89.7Y-107.7
X89.7Y-108.7
X89.7Y-109.7
X89.7Y-110.7
X90.0Y-96.5
X90.0Y-97.5
X90.0Y-98.5
X90.0Y-99.5
X90.0Y-100.5
X90.0Y-101.5
X90.0Y-102.5
X90.25Y-33.0
X90.5Y-77.5
X90.95Y-103.7
X90.95Y-104.7
X90.95Y-105.7
X90.95Y-106.7
X90.95Y-107.7
X90.95Y-108.7
X90.95Y-109.7
X90.95Y-110.7
X91.0Y-96.5
X91.0Y-97.5
X91.0Y-98.5
X91.0Y-99.5
X91.0Y-100.5
X91.0Y-101.5
X91.0Y-102.5
X91.5Y-78.5
X92.15Y-96.5
X92.15Y-97.5
X92.15Y-98.5
X92.15Y-99.5
X92.15Y-100.5
X92.15Y-101.5
X92.15Y-102.5
X92.2Y-103.7
X92.2Y-104.7
X92.2Y-105.7
X92.2Y-106.7
X92.2Y-107.7
X92.2Y-108.7
X92.2Y-109.7
X92.2Y-110.7
X92.5Y-79.5
X93.15Y-96.5
X93.15Y-97.5
X93.15Y-98.5
X93.15Y-99.5
X93.15Y-100.5
X93.15Y-101.5
X93.15Y-102.5
X93.45Y-103.7
X93.45Y-104.7
X93.45Y-105.7
X93.45Y-106.7
X93.45Y-107.7
X93.45Y-108.7
X93.45Y-109.7
X93.45Y-110.7
X93.5Y-41.0
X93.5Y-80.5
X94.15Y-96.5
X94.15Y-97.5
X94.15Y-98.5
X94.15Y-99.5
X94.15Y-100.5
X94.15Y-101.5
X94.15Y-102.5
X94.45Y-103.7
X94.45Y-104.7
X94.45Y-105.7
X94.45Y-106.7
X94.45Y-107.7
X94.45Y-108.7
X94.45Y-109.7
X94.45Y-110.7
X95.0Y-42.0
X95.0Y-43.0
X95.0Y-44.0
X95.4Y-96.5
X95.4Y-97.5
X95.4Y-98.5
X95.4Y-99.5
X95.4Y-100.5
X95.4Y-101.5
X95.4Y-102.5
X95.45Y-103.7
X95.45Y-104.7
X95.45Y-105.7
X95.45Y-106.7
X95.45Y-107.7
X95.45Y-108.7
X95.45Y-109.7
X95.45Y-110.7
X96.65Y-96.5
X96.65Y-97.5
X96.65Y-98.5
X96.65Y-99.5
X96.65Y-100.5
X96.65Y-101.5
X96.65Y-102.5
X96.7Y-103.7
X96.7Y-104.7
X96.7Y-105.7
X96.7Y-106.7
X96.7Y-107.7
X96.7Y-108.7
X96.7Y-109.7
X96.7Y-110.7
X96.75Y-39.5
X97.65Y-96.5
X97.65Y-97.5
X97.65Y-98.5
X97.65Y-99.5
X97.65Y-100.5
X97.65Y-101.5
X97.65Y-102.5
X97.95Y-103.7
X97.95Y-104.7
X97.95Y-105.7
X97.95Y-106.7
X97.95Y-107.7
X97.95Y-108.7
X97.95Y-109.7
X97.95Y-110.7
X98.35Y-88.7
X98.35Y-89.65
X98.35Y-90.65
X98.5Y-42.0
X98.5Y-43.0
X98.5Y-44.0
X98.65Y-96.5
X98.65Y-97.5
X98.65Y-98.5
X98.65Y-99.5
X98.65Y-100.5
X98.65Y-101.5
X98.65Y-102.5
X99.2Y-103.7
X99.2Y-104.7
X99.2Y-105.7
X99.2Y-106.7
X99.2Y-107.7
X99.2Y-108.7
X99.2Y-109.7
X99.2Y-110.7
X99.3Y-84.65
X99.3Y-85.55
X99.35Y-88.7
X99.35Y-89.65
X99.35Y-90.65
X99.35Y-91.65
X99.5Y-39.75
X99.5Y-42.0
X99.5Y-43.0
X100.2Y-103.7
X100.2Y-104.7
X100.2Y-105.7
X100.2Y-106.7
X100.2Y-107.7
X100.2Y-108.7
X100.2Y-109.7
X100.2Y-110.7
X100.3Y-84.6
X100.3Y-85.5
X100.3Y-89.65
X100.3Y-90.65
X100.3Y-91.65
X100.3Y-92.65
X100.35Y-88.65
X101.2Y-103.7
X101.2Y-104.7
X101.2Y-105.7
X101.2Y-106.7
X101.2Y-107.7
X101.2Y-108.7
X101.2Y-109.7
X101.2Y-110.7
X101.3Y-84.6
X101.3Y-85.5
X101.3Y-89.65
X101.3Y-90.65
X101.3Y-91.65
X101.3Y-92.65
X101.35Y-88.65
X101.625Y-36.375
X102.25Y-41.75
X102.25Y-84.6
X102.25Y-85.5
X102.3Y-88.65
X102.3Y-89.6
X102.3Y-90.6
X102.3Y-91.6
X102.3Y-92.6
X102.45Y-103.7
X102.45Y-104.7
X102.45Y-105.7
X102.45Y-106.7
X102.45Y-107.7
X102.45Y-108.7
X102.45Y-109.7
X102.45Y-110.7
X103.2Y-75.2
X103.2Y-76.3
X103.3Y-88.65
X103.3Y-89.6
X103.3Y-90.6
X103.3Y-91.6
X103.3Y-92.6
X103.7Y-103.7
X103.7Y-104.7
X103.7Y-105.7
X103.7Y-106.7
X103.7Y-107.7
X103.7Y-108.7
X103.7Y-109.7
X103.7Y-110.7
X104.175Y-77.325
X104.25Y-89.6
X104.25Y-90.6
X104.25Y-91.6
X104.25Y-92.6
X104.3Y-88.6
X104.375Y-76.125
X104.5Y-36.5
X104.95Y-104.7
X104.95Y-105.7
X104.95Y-106.7
X104.95Y-107.7
X104.95Y-108.7
X104.95Y-109.7
X104.95Y-110.7
X105.25Y-89.6
X105.25Y-90.6
X105.25Y-91.6
X105.25Y-92.6
X105.95Y-104.7
X105.95Y-105.7
X105.95Y-106.7
X105.95Y-107.7
X105.95Y-108.7
X105.95Y-109.7
X105.95Y-110.7
X106.25Y-90.55
X106.25Y-91.55
X106.25Y-92.55
X106.5Y-35.25
X106.95Y-105.7
X106.95Y-106.7
X106.95Y-107.7
X106.95Y-108.7
X106.95Y-109.7
X106.95Y-110.7
X107.25Y-91.55
X107.25Y-92.55
X107.75Y-60.25
X107.875Y-44.125
X108.0Y-48.0
X108.0Y-51.0
X108.0Y-54.0
X108.0Y-57.0
X109.5Y-42.5
X110.25Y-60.3
X110.3Y-36.0
X111.85Y-84.75
X112.5Y-62.5
X112.5Y-63.5
X112.5Y-64.5
X112.9Y-84.75
X112.9Y-85.75
X113.3Y-71.3
X113.5Y-42.0
X113.5Y-62.5
X113.5Y-63.5
X113.9Y-84.75
X113.9Y-85.75
X113.9Y-86.75
X114.0Y-67.5
X114.5Y-62.5
X114.9Y-84.75
X114.9Y-85.75
X114.9Y-86.75
X114.9Y-87.75
X115.0Y-66.5
X115.0Y-67.5
X115.9Y-84.75
X115.9Y-85.75
X115.9Y-86.75
X115.9Y-87.75
X115.9Y-88.8
X116.0Y-65.5
X116.0Y-66.5
X116.0Y-67.5
X116.25Y-58.75
X116.85Y-88.7
X116.85Y-89.7
X116.9Y-84.7
X116.9Y-85.7
X116.9Y-86.7
X116.9Y-87.7
X117.0Y-65.5
X117.0Y-66.5
X117.0Y-67.5
X117.85Y-88.7
X117.85Y-89.7
X117.85Y-90.7
X117.9Y-84.7
X117.9Y-85.7
X117.9Y-86.7
X117.9Y-87.7
X118.0Y-66.5
X118.0Y-67.5
X118.2Y-72.9
X118.5Y-56.0
X118.85Y-84.7
X118.85Y-85.7
X118.85Y-86.7
X118.85Y-87.7
X118.85Y-88.65
X118.85Y-89.65
X118.85Y-90.65
X118.85Y-91.65
X119.0Y-67.5
X119.2Y-72.9
X119.2Y-73.9
X119.85Y-84.7
X119.85Y-85.7
X119.85Y-86.7
X119.85Y-87.7
X119.85Y-88.65
X119.85Y-89.65
X119.85Y-90.65
X119.85Y-91.65
X119.9Y-92.7
X120.2Y-72.9
X120.2Y-73.9
X120.2Y-74.9
X120.8Y-88.65
X120.8Y-89.65
X120.8Y-90.65
X120.8Y-91.65
X120.85Y-84.65
X120.85Y-85.65
X120.85Y-86.65
X120.85Y-87.65
X120.85Y-92.7
X121.0Y-39.5
X121.2Y-72.9
X121.2Y-73.9
X121.2Y-74.9
X121.6Y-53.5
X121.7Y-64.8
X121.8Y-88.65
X121.8Y-89.65
X121.8Y-90.65
X121.8Y-91.65
X121.85Y-84.65
X121.85Y-85.65
X121.85Y-86.65
X121.85Y-87.65
X121.85Y-92.7
X122.0Y-36.5
X122.2Y-72.9
X122.2Y-73.9
X122.3Y-75.0
X122.8Y-85.65
X122.8Y-86.65
X122.8Y-87.65
X122.8Y-88.6
X122.8Y-89.6
X122.8Y-90.6
X122.8Y-91.6
X123.0Y-41.0
X123.2Y-72.9
X123.25Y-43.25
X123.25Y-66.75
X123.3Y-74.0
X123.3Y-75.0
X123.75Y-68.25
X123.8Y-86.65
X123.8Y-87.65
X123.8Y-88.6
X123.8Y-89.6
X123.8Y-90.6
X124.3Y-73.0
X124.3Y-74.0
X125.308Y-42.659
X125.874Y-42.093
X126.175Y-44.623
X126.188Y-61.688
X126.25Y-60.706
X126.575Y-45.5
X127.425Y-45.5
X127.6Y-58.7
X128.0Y-46.5
X128.023Y-49.023
X128.55Y-45.55
X128.623Y-48.423
X128.656Y-58.656
X129.0Y-53.5
X129.5Y-45.25
X129.7Y-61.55
X130.6Y-52.1
X131.0Y-55.25
X131.1Y-80.5
X131.549Y-56.049
X131.65Y-68.2
X132.8Y-68.4
X133.625Y-51.375
X133.843Y-44.375
X133.85Y-50.607
X134.978Y-57.978
X135.643Y-44.0
X135.643Y-45.1
X135.75Y-53.5
X135.96Y-57.96
X136.0Y-51.0
X136.5Y-50.0
X137.05Y-54.55
X137.078Y-71.228
X137.5Y-52.5
X138.647Y-56.147
X138.75Y-52.25
X138.9Y-69.95
X139.4Y-75.85
X139.9Y-81.9
X139.997Y-59.491
X140.5Y-64.15
X140.6Y-60.4
X140.65Y-98.45
X141.1Y-69.0
X142.0Y-55.0
X143.5Y-57.5
X143.75Y-64.55
X144.0Y-55.5
X144.45Y-52.2
X144.75Y-43.0
X145.0Y-57.15
X145.85Y-63.75
X146.5Y-54.25
X146.7Y-84.7
X147.75Y-47.75
X148.675Y-60.825
X149.0Y-65.5
X151.325Y-73.825
T2
X50.0Y-58.5
X50.0Y-65.0
X50.5Y-71.5
X51.5Y-58.5
X51.5Y-65.0
X52.0Y-71.5
T3
X28.4Y-36.0
X28.4Y-109.0
X29.103Y-34.303
X29.103Y-37.697
X29.103Y-107.303
X29.103Y-110.697
X30.8Y-33.6
X30.8Y-38.4
X30.8Y-106.6
X30.8Y-111.4
X32.497Y-34.303
X32.497Y-37.697
X32.497Y-107.303
X32.497Y-110.697
X33.2Y-36.0
X33.2Y-109.0
X147.1Y-36.0
X147.1Y-109.0
X147.803Y-34.303
X147.803Y-37.697
X147.803Y-107.303
X147.803Y-110.697
X149.5Y-33.6
X149.5Y-38.4
X149.5Y-106.6
X149.5Y-111.4
X151.197Y-34.303
X151.197Y-37.697
X151.197Y-107.303
X151.197Y-110.697
X151.9Y-36.0
X151.9Y-109.0
T4
X101.0Y-62.25
X101.0Y-63.75
X101.0Y-67.25
X101.0Y-68.75
X101.0Y-72.25
X101.0Y-73.75
T7
X121.36Y-78.23
X121.36Y-79.5
X121.36Y-80.77
T8
X65.4Y-42.59
X65.4Y-47.32
X65.4Y-52.05
X65.4Y-56.78
X65.4Y-61.51
X65.4Y-66.24
X65.4Y-70.97
X65.4Y-75.7
X91.0Y-44.3
X91.0Y-47.9
X91.0Y-51.1
X91.0Y-54.3
X91.0Y-57.5
X91.0Y-62.5
X91.0Y-67.5
X91.0Y-72.1
X94.0Y-46.3
X94.0Y-49.5
X94.0Y-52.7
X94.0Y-55.9
X94.0Y-59.1
X94.0Y-64.1
X94.0Y-69.1
X94.0Y-74.1
T9
X57.25Y-42.5
X57.25Y-47.25
X57.25Y-51.75
X59.79Y-42.5
X59.79Y-47.25
X59.79Y-51.75
T10
X137.5Y-87.8
T11
X111.5Y-75.42
X111.5Y-77.96
X111.5Y-80.5
X114.587Y-45.0
X114.587Y-47.54
X114.587Y-50.08
X114.587Y-52.62
X114.587Y-55.16
X114.587Y-57.7
X132.925Y-35.0
X135.465Y-35.0
X138.005Y-35.0
X140.545Y-35.0
X143.085Y-35.0
X151.0Y-43.21
X151.0Y-45.75
X151.0Y-48.29
X151.0Y-50.83
X151.0Y-55.46
X151.0Y-58.0
X151.0Y-60.54
X151.0Y-63.08
T12
X46.0Y-98.38
X46.0Y-106.0
X137.2Y-107.3
X139.7Y-107.3
X142.2Y-107.3
T13
X30.3Y-94.0
X30.3Y-99.0
X30.5Y-57.5
X30.5Y-62.5
X30.5Y-67.5
X30.5Y-77.5
X30.5Y-82.5
T14
X83.5Y-86.95
X83.5Y-107.75
X128.5Y-99.75
X128.5Y-107.75
T15
X53.35Y-88.35
X53.35Y-93.43
X53.35Y-98.51
X53.35Y-103.59
T16
X67.5Y-90.342
X67.5Y-100.342
T17
X30.8Y-36.0
X30.8Y-109.0
X149.5Y-36.0
X149.5Y-109.0
T5
G00X122.105Y-34.685
M15
G01X122.105Y-35.085
M16
G05
G00X126.945Y-34.685
M15
G01X126.945Y-35.085
M16
G05
T6
G00X121.795Y-31.635
M15
G01X121.795Y-32.135
M16
G05
G00X127.255Y-31.635
M15
G01X127.255Y-32.135
M16
G05
T16
G00X134.7Y-103.8
M15
G01X134.7Y-104.2
M16
G05
G00X144.7Y-103.8
M15
G01X144.7Y-104.2
M16
G05
M30
