%TF.GenerationSoftware,KiCad,Pcbnew,8.0.6*%
%TF.CreationDate,2024-12-28T02:56:51-05:00*%
%TF.ProjectId,AC_Driver_V2,41435f44-7269-4766-9572-5f56322e6b69,rev?*%
%TF.SameCoordinates,Original*%
%TF.FileFunction,Profile,NP*%
%FSLAX46Y46*%
G04 Gerber Fmt 4.6, Leading zero omitted, Abs format (unit mm)*
G04 Created by KiCad (PCBNEW 8.0.6) date 2024-12-28 02:56:51*
%MOMM*%
%LPD*%
G01*
G04 APERTURE LIST*
%TA.AperFunction,Profile*%
%ADD10C,0.050000*%
%TD*%
G04 APERTURE END LIST*
D10*
X46750000Y-85737532D02*
G75*
G02*
X47000000Y-90749999I0J-2512468D01*
G01*
X24800000Y-110000000D02*
X24800000Y-90750000D01*
X69400000Y-75500000D02*
G75*
G02*
X68400000Y-74500000I0J1000000D01*
G01*
X88400000Y-74500000D02*
G75*
G02*
X87400000Y-75500000I-1000000J0D01*
G01*
X87400000Y-42500001D02*
G75*
G02*
X88399999Y-43500000I42893J-957106D01*
G01*
X68400000Y-43500000D02*
G75*
G02*
X69400000Y-42500000I1000000J0D01*
G01*
X68400000Y-74500000D02*
X68400000Y-43500000D01*
X87400000Y-75500000D02*
X69400000Y-75500000D01*
X88400000Y-43500000D02*
X88400000Y-74500000D01*
X69400000Y-42500000D02*
X87400000Y-42500000D01*
X155500000Y-110000000D02*
X155500000Y-35000000D01*
X29800000Y-115000000D02*
X150500000Y-115000000D01*
X150500000Y-30000000D02*
X29800000Y-30000000D01*
X29800000Y-115000000D02*
G75*
G02*
X24800000Y-110000000I0J5000000D01*
G01*
X155500000Y-110000000D02*
G75*
G02*
X150500000Y-115000000I-5000000J0D01*
G01*
X150500000Y-30000000D02*
G75*
G02*
X155500000Y-35000000I0J-5000000D01*
G01*
X24800000Y-35000000D02*
G75*
G02*
X29800000Y-30000000I5000000J0D01*
G01*
X24800000Y-35000000D02*
X24750000Y-85750000D01*
X46750000Y-85737532D02*
X24750000Y-85750000D01*
X24800000Y-90750000D02*
X47000000Y-90749999D01*
M02*
