%TF.GenerationSoftware,KiCad,Pcbnew,8.0.6*%
%TF.CreationDate,2024-12-28T02:56:51-05:00*%
%TF.ProjectId,AC_Driver_V2,41435f44-7269-4766-9572-5f56322e6b69,rev?*%
%TF.SameCoordinates,Original*%
%TF.FileFunction,Soldermask,Bot*%
%TF.FilePolarity,Negative*%
%FSLAX46Y46*%
G04 Gerber Fmt 4.6, Leading zero omitted, Abs format (unit mm)*
G04 Created by KiCad (PCBNEW 8.0.6) date 2024-12-28 02:56:51*
%MOMM*%
%LPD*%
G01*
G04 APERTURE LIST*
G04 Aperture macros list*
%AMRoundRect*
0 Rectangle with rounded corners*
0 $1 Rounding radius*
0 $2 $3 $4 $5 $6 $7 $8 $9 X,Y pos of 4 corners*
0 Add a 4 corners polygon primitive as box body*
4,1,4,$2,$3,$4,$5,$6,$7,$8,$9,$2,$3,0*
0 Add four circle primitives for the rounded corners*
1,1,$1+$1,$2,$3*
1,1,$1+$1,$4,$5*
1,1,$1+$1,$6,$7*
1,1,$1+$1,$8,$9*
0 Add four rect primitives between the rounded corners*
20,1,$1+$1,$2,$3,$4,$5,0*
20,1,$1+$1,$4,$5,$6,$7,0*
20,1,$1+$1,$6,$7,$8,$9,0*
20,1,$1+$1,$8,$9,$2,$3,0*%
G04 Aperture macros list end*
%ADD10R,1.700000X1.700000*%
%ADD11O,1.700000X1.700000*%
%ADD12R,1.500000X1.050000*%
%ADD13O,1.500000X1.050000*%
%ADD14RoundRect,0.250000X-2.050000X-0.300000X2.050000X-0.300000X2.050000X0.300000X-2.050000X0.300000X0*%
%ADD15RoundRect,0.250002X-4.449998X-5.149998X4.449998X-5.149998X4.449998X5.149998X-4.449998X5.149998X0*%
%ADD16RoundRect,0.102000X-0.900000X-0.900000X0.900000X-0.900000X0.900000X0.900000X-0.900000X0.900000X0*%
%ADD17C,2.004000*%
%ADD18O,3.204000X6.204000*%
%ADD19RoundRect,0.150000X0.825000X0.150000X-0.825000X0.150000X-0.825000X-0.150000X0.825000X-0.150000X0*%
%ADD20RoundRect,0.250000X-0.250000X-0.475000X0.250000X-0.475000X0.250000X0.475000X-0.250000X0.475000X0*%
%ADD21RoundRect,0.250000X0.250000X0.475000X-0.250000X0.475000X-0.250000X-0.475000X0.250000X-0.475000X0*%
%ADD22O,2.400000X2.400000*%
%ADD23C,2.400000*%
%ADD24C,1.600000*%
%ADD25O,1.600000X1.600000*%
%ADD26C,2.600000*%
%ADD27R,2.600000X2.600000*%
%ADD28C,0.800000*%
%ADD29C,6.400000*%
%ADD30C,3.200000*%
%ADD31R,3.200000X3.200000*%
%ADD32C,4.000000*%
%ADD33R,4.000000X4.000000*%
%ADD34C,1.200000*%
%ADD35C,0.900000*%
%ADD36O,1.350000X1.700000*%
%ADD37O,1.100000X1.500000*%
%ADD38C,1.524000*%
%ADD39C,3.000000*%
%ADD40R,3.000000X3.000000*%
G04 APERTURE END LIST*
D10*
%TO.C,J6*%
X111500000Y-75420000D03*
D11*
X111500000Y-77960000D03*
X111500000Y-80500000D03*
%TD*%
D12*
%TO.C,Q1*%
X121360000Y-80770000D03*
D13*
X121360000Y-79500000D03*
X121360000Y-78230000D03*
%TD*%
D14*
%TO.C,U1*%
X137525000Y-94865000D03*
X137525000Y-92325000D03*
D15*
X146675000Y-92325000D03*
D14*
X137525000Y-89785000D03*
%TD*%
D16*
%TO.C,R26*%
X137200000Y-107300000D03*
D17*
X139700000Y-107300000D03*
X142200000Y-107300000D03*
D18*
X134700000Y-104000000D03*
X144700000Y-104000000D03*
%TD*%
D19*
%TO.C,U7*%
X43550000Y-55230000D03*
X43550000Y-56500000D03*
X43550000Y-57770000D03*
X43550000Y-59040000D03*
X48500000Y-59040000D03*
X48500000Y-57770000D03*
X48500000Y-56500000D03*
X48500000Y-55230000D03*
%TD*%
%TO.C,U6*%
X43525000Y-68460000D03*
X43525000Y-69730000D03*
X43525000Y-71000000D03*
X43525000Y-72270000D03*
X48475000Y-72270000D03*
X48475000Y-71000000D03*
X48475000Y-69730000D03*
X48475000Y-68460000D03*
%TD*%
%TO.C,U5*%
X43525000Y-61960000D03*
X43525000Y-63230000D03*
X43525000Y-64500000D03*
X43525000Y-65770000D03*
X48475000Y-65770000D03*
X48475000Y-64500000D03*
X48475000Y-63230000D03*
X48475000Y-61960000D03*
%TD*%
D20*
%TO.C,C37*%
X38525000Y-47000000D03*
X40425000Y-47000000D03*
%TD*%
D21*
%TO.C,C36*%
X40450000Y-62000000D03*
X38550000Y-62000000D03*
%TD*%
%TO.C,C35*%
X40400000Y-55000000D03*
X38500000Y-55000000D03*
%TD*%
%TO.C,C17*%
X40500000Y-68500000D03*
X38600000Y-68500000D03*
%TD*%
D22*
%TO.C,TH1*%
X46000000Y-98380000D03*
D23*
X46000000Y-106000000D03*
%TD*%
D24*
%TO.C,R18*%
X59790000Y-51750000D03*
D25*
X57250000Y-51750000D03*
%TD*%
D24*
%TO.C,R22*%
X59790000Y-42500000D03*
D25*
X57250000Y-42500000D03*
%TD*%
D24*
%TO.C,R21*%
X59790000Y-47250000D03*
D25*
X57250000Y-47250000D03*
%TD*%
D26*
%TO.C,J2-HVDC2*%
X30500000Y-82500000D03*
D27*
X30500000Y-77500000D03*
%TD*%
D26*
%TO.C,J1-120VAC1*%
X30300000Y-99000000D03*
D27*
X30300000Y-94000000D03*
%TD*%
%TO.C,MOTOR1*%
X30500000Y-57500000D03*
D26*
X30500000Y-62500000D03*
X30500000Y-67500000D03*
%TD*%
D28*
%TO.C,H4*%
X151900000Y-109000000D03*
X151197056Y-110697056D03*
X151197056Y-107302944D03*
X149500000Y-111400000D03*
D29*
X149500000Y-109000000D03*
D28*
X149500000Y-106600000D03*
X147802944Y-110697056D03*
X147802944Y-107302944D03*
X147100000Y-109000000D03*
%TD*%
%TO.C,H3*%
X28400000Y-109000000D03*
X29102944Y-107302944D03*
X29102944Y-110697056D03*
X30800000Y-106600000D03*
D29*
X30800000Y-109000000D03*
D28*
X30800000Y-111400000D03*
X32497056Y-107302944D03*
X32497056Y-110697056D03*
X33200000Y-109000000D03*
%TD*%
%TO.C,H2*%
X147100000Y-36000000D03*
X147802944Y-34302944D03*
X147802944Y-37697056D03*
X149500000Y-33600000D03*
D29*
X149500000Y-36000000D03*
D28*
X149500000Y-38400000D03*
X151197056Y-34302944D03*
X151197056Y-37697056D03*
X151900000Y-36000000D03*
%TD*%
%TO.C,H1*%
X28400000Y-36000000D03*
X29102944Y-34302944D03*
X29102944Y-37697056D03*
X30800000Y-33600000D03*
D29*
X30800000Y-36000000D03*
D28*
X30800000Y-38400000D03*
X32497056Y-34302944D03*
X32497056Y-37697056D03*
X33200000Y-36000000D03*
%TD*%
D30*
%TO.C,DB1*%
X53350000Y-103590000D03*
X53350000Y-98510000D03*
X53350000Y-93430000D03*
D31*
X53350000Y-88350000D03*
%TD*%
D32*
%TO.C,C1*%
X67500000Y-100342169D03*
D33*
X67500000Y-90342169D03*
%TD*%
D34*
%TO.C,C28*%
X101000000Y-68750000D03*
X101000000Y-67250000D03*
%TD*%
D11*
%TO.C,J2*%
X151000000Y-43210000D03*
X151000000Y-45750000D03*
X151000000Y-48290000D03*
D10*
X151000000Y-50830000D03*
%TD*%
D34*
%TO.C,C27*%
X101000000Y-73750000D03*
X101000000Y-72250000D03*
%TD*%
D35*
%TO.C,SW2*%
X107100000Y-31745000D03*
X104100000Y-31745000D03*
%TD*%
D10*
%TO.C,J5*%
X151000000Y-63080000D03*
D11*
X151000000Y-60540000D03*
X151000000Y-58000000D03*
X151000000Y-55460000D03*
%TD*%
%TO.C,J4*%
X143085000Y-35000000D03*
X140545000Y-35000000D03*
X138005000Y-35000000D03*
X135465000Y-35000000D03*
D10*
X132925000Y-35000000D03*
%TD*%
D36*
%TO.C,J3*%
X127255000Y-31885000D03*
D37*
X126945000Y-34885000D03*
X122105000Y-34885000D03*
D36*
X121795000Y-31885000D03*
%TD*%
D34*
%TO.C,C29*%
X101000000Y-63750000D03*
X101000000Y-62250000D03*
%TD*%
D38*
%TO.C,U1-IGCM04F60GAXKMA1*%
X94000000Y-74100000D03*
X91000000Y-72100000D03*
X94000000Y-69100000D03*
X91000000Y-67500000D03*
X94000000Y-64100000D03*
X91000000Y-62500000D03*
X94000000Y-59100000D03*
X91000000Y-57500000D03*
X94000000Y-55900000D03*
X91000000Y-54300000D03*
X94000000Y-52700000D03*
X91000000Y-51100000D03*
X94000000Y-49500000D03*
X91000000Y-47900000D03*
X94000000Y-46300000D03*
X91000000Y-44300000D03*
X65400000Y-42590000D03*
X65400000Y-47320000D03*
X65400000Y-52050000D03*
X65400000Y-56780000D03*
X65400000Y-61510000D03*
X65400000Y-66240000D03*
X65400000Y-70970000D03*
X65400000Y-75700000D03*
%TD*%
D19*
%TO.C,U8*%
X48500000Y-47000000D03*
X48500000Y-48270000D03*
X48500000Y-49540000D03*
X48500000Y-50810000D03*
X43550000Y-50810000D03*
X43550000Y-49540000D03*
X43550000Y-48270000D03*
X43550000Y-47000000D03*
%TD*%
D39*
%TO.C,PS1*%
X128500000Y-99750000D03*
X128500000Y-107750000D03*
X83500000Y-107750000D03*
D40*
X83500000Y-86950000D03*
%TD*%
D11*
%TO.C,J_TestPoints1*%
X114587500Y-45000000D03*
X114587500Y-47540000D03*
X114587500Y-50080000D03*
X114587500Y-52620000D03*
X114587500Y-55160000D03*
D10*
X114587500Y-57700000D03*
%TD*%
M02*
